<svg xmlns="http://www.w3.org/2000/svg" xmlns:xlink="http://www.w3.org/1999/xlink" viewBox="0 0 1920 1080"><defs><style>.cls-1,.cls-146,.cls-51{fill:none;}.cls-2{isolation:isolate;}.cls-3{mask:url(#mask);}.cls-4{fill:#5c7ca2;}.cls-5{fill:url(#linear-gradient);}.cls-6{fill:url(#linear-gradient-2);}.cls-7{fill:url(#linear-gradient-3);}.cls-8{mask:url(#mask-2);}.cls-9{fill:#ff816c;}.cls-10{fill:url(#linear-gradient-4);}.cls-11{fill:url(#linear-gradient-5);}.cls-12{fill:url(#linear-gradient-6);}.cls-13{mask:url(#mask-3);}.cls-14{fill:url(#linear-gradient-7);}.cls-15{fill:url(#linear-gradient-8);}.cls-16{fill:url(#linear-gradient-9);}.cls-17{mask:url(#mask-4);}.cls-18{fill:#4890d8;}.cls-19{fill:url(#linear-gradient-10);}.cls-20{mask:url(#mask-5);}.cls-21{fill:#4a98ed;}.cls-22{fill:url(#linear-gradient-11);}.cls-23{mask:url(#mask-6);}.cls-24{fill:#89bdf4;}.cls-25{fill:url(#linear-gradient-12);}.cls-26{mask:url(#mask-7);}.cls-27{fill:#0b407a;}.cls-28{fill:url(#linear-gradient-13);}.cls-29{fill:url(#linear-gradient-14);}.cls-30{fill:url(#linear-gradient-15);}.cls-31{mask:url(#mask-8);}.cls-32{fill:#0660f2;}.cls-33{fill:url(#linear-gradient-16);}.cls-34{mask:url(#mask-9);}.cls-35{fill:#00243f;}.cls-36{fill:url(#linear-gradient-17);}.cls-37{mask:url(#mask-10);}.cls-38{fill:#00377a;}.cls-39{fill:url(#linear-gradient-18);}.cls-40{fill:url(#linear-gradient-19);}.cls-41{fill:url(#linear-gradient-20);}.cls-42{fill:url(#New_Gradient_Swatch_copy_2);}.cls-43{mask:url(#mask-11);}.cls-44{fill:#001835;}.cls-45{fill:url(#linear-gradient-21);}.cls-46{mask:url(#mask-12);}.cls-47{fill:#c9feff;}.cls-107,.cls-48{fill:#000f60;}.cls-49{fill:url(#linear-gradient-22);}.cls-50{fill:url(#linear-gradient-23);}.cls-51{stroke-miterlimit:10;stroke-width:2px;stroke:url(#linear-gradient-24);}.cls-52{fill:url(#linear-gradient-25);}.cls-53{fill:url(#linear-gradient-26);}.cls-54{mask:url(#mask-13);}.cls-55{fill:#000929;}.cls-56{fill:url(#linear-gradient-27);}.cls-57{mask:url(#mask-14);}.cls-58{fill:url(#linear-gradient-28);}.cls-59{fill:url(#linear-gradient-29);}.cls-60{mask:url(#mask-15);}.cls-61{fill:#ff8a66;}.cls-62{opacity:0.8;fill:url(#linear-gradient-30);}.cls-107,.cls-62{mix-blend-mode:multiply;}.cls-63{fill:url(#linear-gradient-31);}.cls-64{fill:url(#linear-gradient-32);}.cls-65{fill:#000a35;}.cls-66{mask:url(#mask-16);}.cls-67{fill:#001351;}.cls-68{fill:url(#linear-gradient-33);}.cls-69{fill:url(#linear-gradient-34);}.cls-70{fill:#091647;}.cls-71{mask:url(#mask-17);}.cls-72{fill:#0d418c;}.cls-73{clip-path:url(#clip-path);}.cls-107,.cls-74{opacity:0.3;}.cls-75{clip-path:url(#clip-path-2);}.cls-76{clip-path:url(#clip-path-3);}.cls-77{clip-path:url(#clip-path-4);}.cls-78{clip-path:url(#clip-path-5);}.cls-79{clip-path:url(#clip-path-6);}.cls-80{clip-path:url(#clip-path-7);}.cls-81{clip-path:url(#clip-path-8);}.cls-82{clip-path:url(#clip-path-9);}.cls-83{clip-path:url(#clip-path-10);}.cls-84{clip-path:url(#clip-path-11);}.cls-85{clip-path:url(#clip-path-12);}.cls-86{clip-path:url(#clip-path-13);}.cls-87{clip-path:url(#clip-path-14);}.cls-88{clip-path:url(#clip-path-15);}.cls-89{clip-path:url(#clip-path-16);}.cls-90{clip-path:url(#clip-path-17);}.cls-91{clip-path:url(#clip-path-18);}.cls-92{clip-path:url(#clip-path-19);}.cls-93{clip-path:url(#clip-path-20);}.cls-94{clip-path:url(#clip-path-21);}.cls-95{clip-path:url(#clip-path-22);}.cls-96{clip-path:url(#clip-path-23);}.cls-97{clip-path:url(#clip-path-24);}.cls-98{clip-path:url(#clip-path-25);}.cls-99{clip-path:url(#clip-path-26);}.cls-100{clip-path:url(#clip-path-27);}.cls-101{clip-path:url(#clip-path-28);}.cls-102{clip-path:url(#clip-path-29);}.cls-103{clip-path:url(#clip-path-30);}.cls-104{clip-path:url(#clip-path-31);}.cls-105{clip-path:url(#clip-path-32);}.cls-106{clip-path:url(#clip-path-33);}.cls-108{clip-path:url(#clip-path-34);}.cls-109{clip-path:url(#clip-path-35);}.cls-110{clip-path:url(#clip-path-36);}.cls-111{clip-path:url(#clip-path-37);}.cls-112{clip-path:url(#clip-path-38);}.cls-113{clip-path:url(#clip-path-39);}.cls-114{clip-path:url(#clip-path-40);}.cls-115{clip-path:url(#clip-path-41);}.cls-116{clip-path:url(#clip-path-42);}.cls-117{clip-path:url(#clip-path-43);}.cls-118{clip-path:url(#clip-path-44);}.cls-119{clip-path:url(#clip-path-45);}.cls-120{clip-path:url(#clip-path-46);}.cls-121{clip-path:url(#clip-path-47);}.cls-122{clip-path:url(#clip-path-48);}.cls-123{clip-path:url(#clip-path-49);}.cls-124{clip-path:url(#clip-path-50);}.cls-125{clip-path:url(#clip-path-51);}.cls-126{clip-path:url(#clip-path-52);}.cls-127{clip-path:url(#clip-path-53);}.cls-128{clip-path:url(#clip-path-54);}.cls-129{clip-path:url(#clip-path-55);}.cls-130{clip-path:url(#clip-path-56);}.cls-131{clip-path:url(#clip-path-57);}.cls-132{clip-path:url(#clip-path-58);}.cls-133{clip-path:url(#clip-path-59);}.cls-134{clip-path:url(#clip-path-60);}.cls-135{clip-path:url(#clip-path-61);}.cls-136{clip-path:url(#clip-path-62);}.cls-137{clip-path:url(#clip-path-63);}.cls-138{clip-path:url(#clip-path-64);}.cls-139{clip-path:url(#clip-path-65);}.cls-140{clip-path:url(#clip-path-66);}.cls-141{clip-path:url(#clip-path-67);}.cls-142{clip-path:url(#clip-path-68);}.cls-143{clip-path:url(#clip-path-69);}.cls-144{clip-path:url(#clip-path-70);}.cls-145{clip-path:url(#clip-path-71);}.cls-146{stroke-linecap:round;stroke-linejoin:round;stroke-width:19.6px;stroke:url(#linear-gradient-35);}.cls-147{clip-path:url(#clip-path-72);}.cls-148{clip-path:url(#clip-path-73);}.cls-149{clip-path:url(#clip-path-74);}.cls-150{clip-path:url(#clip-path-75);}.cls-151{clip-path:url(#clip-path-76);}.cls-152{clip-path:url(#clip-path-77);}.cls-153{clip-path:url(#clip-path-78);}.cls-154{clip-path:url(#clip-path-79);}.cls-155{clip-path:url(#clip-path-80);}.cls-156{clip-path:url(#clip-path-81);}.cls-157{clip-path:url(#clip-path-82);}.cls-158{clip-path:url(#clip-path-83);}.cls-159{clip-path:url(#clip-path-84);}.cls-160{clip-path:url(#clip-path-85);}.cls-161{clip-path:url(#clip-path-86);}.cls-162{clip-path:url(#clip-path-87);}.cls-163{clip-path:url(#clip-path-88);}.cls-164{clip-path:url(#clip-path-89);}.cls-165{clip-path:url(#clip-path-90);}.cls-166{clip-path:url(#clip-path-91);}.cls-167{clip-path:url(#clip-path-92);}.cls-168{clip-path:url(#clip-path-93);}</style><mask id="mask" x="-36" y="407.64" width="1992" height="342" maskUnits="userSpaceOnUse"><image width="1992" height="342" transform="translate(-36 407.64)" xlink:href="Artboard%2041.png"/></mask><linearGradient id="linear-gradient" y1="838.23" x2="1920" y2="838.23" gradientUnits="userSpaceOnUse"><stop offset="0" stop-color="#12257e"/><stop offset="0.51" stop-color="#2e70d2"/><stop offset="0.97" stop-color="#054ab9"/><stop offset="1" stop-color="#2f71d4"/></linearGradient><linearGradient id="linear-gradient-2" x1="960" y1="891.38" x2="960" y2="1131.4" gradientUnits="userSpaceOnUse"><stop offset="0" stop-color="#1c3b75"/><stop offset="1" stop-color="#08192b"/></linearGradient><linearGradient id="linear-gradient-3" x1="960" y1="-2.21" x2="960" y2="795.41" gradientUnits="userSpaceOnUse"><stop offset="0.34" stop-color="#2a77a3"/><stop offset="0.66" stop-color="#e57e5c"/><stop offset="0.8" stop-color="#e16a4b"/></linearGradient><mask id="mask-2" x="-36" y="-36.36" width="1992" height="870" maskUnits="userSpaceOnUse"><image width="1992" height="870" transform="translate(-36 -36.36)" xlink:href="Artboard%2042.png"/></mask><linearGradient id="linear-gradient-4" x1="759.98" y1="355.24" x2="759.98" y2="413.16" gradientTransform="matrix(-1, 0, 0, 1, 2173.25, 0)" gradientUnits="userSpaceOnUse"><stop offset="0" stop-color="#bfc0c1"/><stop offset="1" stop-color="#bfc0c1" stop-opacity="0"/></linearGradient><linearGradient id="linear-gradient-5" x1="1131.33" y1="198.45" x2="1131.33" y2="270.16" gradientUnits="userSpaceOnUse"><stop offset="0" stop-color="#ff816c"/><stop offset="1" stop-color="#ff816c" stop-opacity="0"/></linearGradient><linearGradient id="linear-gradient-6" x1="591.09" y1="327.95" x2="591.09" y2="380.05" xlink:href="#linear-gradient-5"/><mask id="mask-3" x="839" y="190.64" width="202" height="202" maskUnits="userSpaceOnUse"><image width="202" height="202" transform="translate(839 190.64)" xlink:href="Artboard%2043.png"/></mask><linearGradient id="linear-gradient-7" x1="960" y1="443.13" x2="960" y2="712.66" gradientUnits="userSpaceOnUse"><stop offset="0" stop-color="#3f8eb6"/><stop offset="0.04" stop-color="#5f8ba5"/><stop offset="0.11" stop-color="#87878f"/><stop offset="0.18" stop-color="#a9847c"/><stop offset="0.25" stop-color="#c4816e"/><stop offset="0.32" stop-color="#d67f64"/><stop offset="0.39" stop-color="#e17e5e"/><stop offset="0.47" stop-color="#e57e5c"/><stop offset="1" stop-color="#e16a4b"/></linearGradient><linearGradient id="linear-gradient-8" x1="1323.55" y1="552.73" x2="1323.55" y2="601.8" gradientUnits="userSpaceOnUse"><stop offset="0" stop-color="#438bec"/><stop offset="1" stop-color="#6ca4e3"/></linearGradient><linearGradient id="linear-gradient-9" x1="1549.98" y1="581.39" x2="1549.98" y2="624.48" gradientUnits="userSpaceOnUse"><stop offset="0" stop-color="#081c78"/><stop offset="1" stop-color="#001574"/></linearGradient><mask id="mask-4" x="-36" y="559.64" width="1992" height="557" maskUnits="userSpaceOnUse"><image width="1992" height="557" transform="translate(-36 559.64)" xlink:href="Artboard%2044.png"/></mask><linearGradient id="linear-gradient-10" x1="1463.64" y1="562.38" x2="1463.64" y2="617.83" gradientUnits="userSpaceOnUse"><stop offset="0" stop-color="#387bdc"/><stop offset="1" stop-color="#1a2c82"/></linearGradient><mask id="mask-5" x="971" y="529.64" width="985" height="134" maskUnits="userSpaceOnUse"><image width="985" height="134" transform="translate(971 529.64)" xlink:href="Artboard%2045.png"/></mask><linearGradient id="linear-gradient-11" x1="279.77" y1="552.73" x2="279.77" y2="601.8" xlink:href="#linear-gradient-8"/><mask id="mask-6" x="-31" y="521.64" width="621" height="128" maskUnits="userSpaceOnUse"><image width="621" height="128" transform="translate(-31 521.64)" xlink:href="Artboard%2046.png"/></mask><linearGradient id="linear-gradient-12" x1="607.84" y1="563.85" x2="607.84" y2="619.35" xlink:href="#linear-gradient-9"/><mask id="mask-7" x="5" y="521.64" width="1205" height="155" maskUnits="userSpaceOnUse"><image width="1205" height="155" transform="translate(5 521.64)" xlink:href="Artboard%2047.png"/></mask><linearGradient id="linear-gradient-13" x1="-312.8" y1="768.07" x2="212.3" y2="768.07" gradientTransform="matrix(1, 0, 0, -1, 394.6, 1536.15)" gradientUnits="userSpaceOnUse"><stop offset="0" stop-color="#3075db" stop-opacity="0"/><stop offset="1" stop-color="#054ab9"/></linearGradient><linearGradient id="linear-gradient-14" x1="-822" y1="689.45" x2="-296.9" y2="689.45" gradientTransform="matrix(1, 0, 0, -1, 1413.01, 1378.89)" xlink:href="#linear-gradient-13"/><linearGradient id="linear-gradient-15" x1="567.53" y1="667.02" x2="1115.81" y2="667.02" gradientUnits="userSpaceOnUse"><stop offset="0" stop-color="#043a91"/><stop offset="1" stop-color="#2f71d4"/></linearGradient><mask id="mask-8" x="253" y="583.64" width="961" height="166" maskUnits="userSpaceOnUse"><image width="961" height="166" transform="translate(253 583.64)" xlink:href="Artboard%2048.png"/></mask><linearGradient id="linear-gradient-16" x1="573.89" y1="557.77" x2="573.89" y2="700.52" gradientUnits="userSpaceOnUse"><stop offset="0" stop-color="#000f51"/><stop offset="1" stop-color="#00082b"/></linearGradient><mask id="mask-9" x="-36" y="516.64" width="1220" height="250" maskUnits="userSpaceOnUse"><image width="1220" height="250" transform="translate(-36 516.64)" xlink:href="Artboard%2049.png"/></mask><linearGradient id="linear-gradient-17" x1="453.45" y1="659.08" x2="453.45" y2="775.03" gradientUnits="userSpaceOnUse"><stop offset="0" stop-color="#051463"/><stop offset="1" stop-color="#000f60"/></linearGradient><mask id="mask-10" x="-36" y="626.64" width="979" height="202" maskUnits="userSpaceOnUse"><image width="979" height="202" transform="translate(-36 626.64)" xlink:href="Artboard%20410.png"/></mask><linearGradient id="linear-gradient-18" x1="337.84" y1="850.28" x2="1095.07" y2="850.28" gradientTransform="matrix(1, 0, 0, 1, 0, 0)" xlink:href="#linear-gradient-13"/><linearGradient id="linear-gradient-19" x1="811.14" y1="701.29" x2="1616.76" y2="701.29" gradientTransform="matrix(1, 0, 0, 1, 0, 0)" xlink:href="#linear-gradient-13"/><linearGradient id="linear-gradient-20" x1="1570.27" y1="628.08" x2="1570.27" y2="722.39" gradientUnits="userSpaceOnUse"><stop offset="0"/><stop offset="1" stop-color="#000313"/></linearGradient><linearGradient id="New_Gradient_Swatch_copy_2" x1="1280.66" y1="635.03" x2="1280.66" y2="983.42" xlink:href="#linear-gradient-20"/><mask id="mask-11" x="605" y="588.64" width="1351" height="461" maskUnits="userSpaceOnUse"><image width="1351" height="461" transform="translate(605 588.64)" xlink:href="Artboard%20411.png"/></mask><linearGradient id="linear-gradient-21" x1="721.22" y1="579.26" x2="721.22" y2="996.24" gradientUnits="userSpaceOnUse"><stop offset="0" stop-color="#438bec"/><stop offset="1" stop-color="#387bdc"/></linearGradient><mask id="mask-12" x="-36" y="546.64" width="1515" height="552" maskUnits="userSpaceOnUse"><image width="1515" height="552" transform="translate(-36 546.64)" xlink:href="Artboard%20412.png"/></mask><linearGradient id="linear-gradient-22" x1="460.69" y1="793.93" x2="460.69" y2="825.23" xlink:href="#linear-gradient-20"/><linearGradient id="linear-gradient-23" x1="460.69" y1="779.02" x2="460.69" y2="792.19" xlink:href="#linear-gradient-16"/><linearGradient id="linear-gradient-24" x1="518.44" y1="776.28" x2="518.44" y2="966.55" xlink:href="#linear-gradient-20"/><linearGradient id="linear-gradient-25" x1="157.12" y1="828.67" x2="157.12" y2="852.14" xlink:href="#linear-gradient-20"/><linearGradient id="linear-gradient-26" x1="305.93" y1="968.46" x2="305.93" y2="1026.01" xlink:href="#linear-gradient-20"/><mask id="mask-13" x="109" y="908.64" width="399" height="195" maskUnits="userSpaceOnUse"><image width="399" height="195" transform="translate(109 908.64)" xlink:href="Artboard%20413.png"/></mask><linearGradient id="linear-gradient-27" x1="504.5" y1="973.94" x2="504.5" y2="1043.87" xlink:href="#linear-gradient-20"/><mask id="mask-14" x="290" y="935.64" width="429" height="151" maskUnits="userSpaceOnUse"><image width="429" height="151" transform="translate(290 935.64)" xlink:href="Artboard%20414.png"/></mask><linearGradient id="linear-gradient-28" x1="326.78" y1="1035.23" x2="326.78" y2="1063.42" xlink:href="#linear-gradient-20"/><linearGradient id="linear-gradient-29" x1="168" y1="775.2" x2="168" y2="936.62" gradientTransform="matrix(-1, 0, 0, 1, 805.19, 0)" xlink:href="#linear-gradient-20"/><mask id="mask-15" x="570" y="734.64" width="134" height="252" maskUnits="userSpaceOnUse"><image width="134" height="252" transform="translate(570 734.64)" xlink:href="Artboard%20415.png"/></mask><linearGradient id="linear-gradient-30" x1="757.39" y1="934.6" x2="757.39" y2="954.36" xlink:href="#linear-gradient-20"/><linearGradient id="linear-gradient-31" x1="598.53" y1="960.13" x2="598.53" y2="982.56" xlink:href="#linear-gradient-20"/><linearGradient id="linear-gradient-32" x1="654.7" y1="950.35" x2="654.7" y2="961.93" xlink:href="#linear-gradient-20"/><mask id="mask-16" x="1033" y="276.64" width="546" height="215" maskUnits="userSpaceOnUse"><image width="546" height="215" transform="translate(1033 276.64)" xlink:href="Artboard%20416.png"/></mask><linearGradient id="linear-gradient-33" x1="692.81" y1="256.03" x2="692.81" y2="314.88" xlink:href="#linear-gradient-5"/><linearGradient id="linear-gradient-34" x1="1058.75" y1="274.51" x2="1058.75" y2="326.38" xlink:href="#linear-gradient-5"/><mask id="mask-17" x="-37" y="-36.36" width="1993" height="617" maskUnits="userSpaceOnUse"><image width="1993" height="617" transform="translate(-37 -36.36)" xlink:href="Artboard%20417.png"/></mask><clipPath id="clip-path"><path class="cls-1" d="M-1,543.94c0-262,430-474.42,960.48-474.42S1920,281.92,1920,543.94V0H0Z"/></clipPath><clipPath id="clip-path-2"><path class="cls-1" d="M41.41,1V0a3.5,3.5,0,0,1,3.5-3.5A3.5,3.5,0,0,1,48.41,0V1Z"/></clipPath><clipPath id="clip-path-3"><path class="cls-1" d="M212.45,27.78h1a3.5,3.5,0,0,1,0,7h-1Z"/></clipPath><clipPath id="clip-path-4"><path class="cls-1" d="M55,1V0a3.5,3.5,0,0,1,7,0V1Z"/></clipPath><clipPath id="clip-path-5"><path class="cls-1" d="M1919,79.55h1a3.5,3.5,0,0,1,0,7h-1Z"/></clipPath><clipPath id="clip-path-6"><path class="cls-1" d="M.62,267h-1a3.5,3.5,0,0,1-3.5-3.5A3.5,3.5,0,0,1-.36,260h1Z"/></clipPath><clipPath id="clip-path-7"><path class="cls-1" d="M1919,174.16h1a3.5,3.5,0,0,1,0,7h-1Z"/></clipPath><clipPath id="clip-path-8"><path class="cls-1" d="M1919,247.69h1a3.5,3.5,0,0,1,0,7h-1Z"/></clipPath><clipPath id="clip-path-9"><path class="cls-1" d="M1751.34,317.27h-1a3.5,3.5,0,0,1,0-7h1Z"/></clipPath><clipPath id="clip-path-10"><path class="cls-1" d="M1749.38,244.63h1a3.5,3.5,0,0,1,0,7h-1Z"/></clipPath><clipPath id="clip-path-11"><path class="cls-1" d="M1580,168.09v1a3.5,3.5,0,0,1-7,0v-1Z"/></clipPath><clipPath id="clip-path-12"><path class="cls-1" d="M1920,25h1a3.5,3.5,0,0,1,0,7h-1Z"/></clipPath><clipPath id="clip-path-13"><path class="cls-1" d="M1291.76,83.23v1a3.5,3.5,0,1,1-7,0v-1Z"/></clipPath><clipPath id="clip-path-14"><path class="cls-1" d="M1431,107.22v-1a3.5,3.5,0,0,1,7,0v1Z"/></clipPath><clipPath id="clip-path-15"><path class="cls-1" d="M1438,130.53v1a3.5,3.5,0,0,1-7,0v-1Z"/></clipPath><clipPath id="clip-path-16"><path class="cls-1" d="M918.2,81.45v1a3.5,3.5,0,1,1-7,0v-1Z"/></clipPath><clipPath id="clip-path-17"><path class="cls-1" d="M911.2,14.55v-1a3.5,3.5,0,0,1,7,0v1Z"/></clipPath><clipPath id="clip-path-18"><path class="cls-1" d="M393.41,29.44v-1a3.5,3.5,0,1,1,7,0v1Z"/></clipPath><clipPath id="clip-path-19"><path class="cls-1" d="M400.41,156v1a3.5,3.5,0,0,1-7,0v-1Z"/></clipPath><clipPath id="clip-path-20"><path class="cls-1" d="M351.54,58.81v-1a3.5,3.5,0,1,1,7,0v1Z"/></clipPath><clipPath id="clip-path-21"><path class="cls-1" d="M358.54,147.06v1a3.5,3.5,0,1,1-7,0v-1Z"/></clipPath><clipPath id="clip-path-22"><path class="cls-1" d="M0,337.16H-1a3.5,3.5,0,0,1-3.5-3.5,3.5,3.5,0,0,1,3.5-3.5H0Z"/></clipPath><clipPath id="clip-path-23"><path class="cls-1" d="M137.55,241.56h1a3.5,3.5,0,1,1,0,7h-1Z"/></clipPath><clipPath id="clip-path-24"><path class="cls-1" d="M98.27,1V0a3.5,3.5,0,0,1,3.5-3.5,3.5,3.5,0,0,1,3.5,3.5V1Z"/></clipPath><clipPath id="clip-path-25"><path class="cls-1" d="M105.27,271v1a3.5,3.5,0,0,1-7,0v-1Z"/></clipPath><clipPath id="clip-path-26"><path class="cls-1" d="M300.36,111.74h-1a5.5,5.5,0,0,1,0-11h1Z"/></clipPath><clipPath id="clip-path-27"><path class="cls-1" d="M457.72,100.74h1a5.5,5.5,0,0,1,0,11h-1Z"/></clipPath><clipPath id="clip-path-28"><path class="cls-1" d="M65.81,1V0a5.5,5.5,0,0,1,5.5-5.5A5.5,5.5,0,0,1,76.81,0V1Z"/></clipPath><clipPath id="clip-path-29"><path class="cls-1" d="M76.81,96.9v1a5.5,5.5,0,0,1-11,0v-1Z"/></clipPath><clipPath id="clip-path-30"><path class="cls-1" d="M521.12,1V0a5.5,5.5,0,0,1,5.5-5.5,5.5,5.5,0,0,1,5.5,5.5V1Z"/></clipPath><clipPath id="clip-path-31"><path class="cls-1" d="M532.12,76.6v1a5.5,5.5,0,1,1-11,0v-1Z"/></clipPath><clipPath id="clip-path-32"><path class="cls-1" d="M1920,291.65h1a5.5,5.5,0,0,1,0,11h-1Z"/></clipPath><clipPath id="clip-path-33"><path class="cls-1" d="M1411.67,134.36v1a5.5,5.5,0,0,1-11,0v-1Z"/></clipPath><clipPath id="clip-path-34"><path class="cls-1" d="M-1,543.94c0-262,1921-262,1921,0V0H0Z"/></clipPath><clipPath id="clip-path-35"><path class="cls-1" d="M152.42,341.62v1a9.8,9.8,0,1,1-19.6,0v-1Z"/></clipPath><clipPath id="clip-path-36"><path class="cls-1" d="M298.4,82.58h1a9.8,9.8,0,1,1,0,19.6h-1Z"/></clipPath><clipPath id="clip-path-37"><path class="cls-1" d="M289.58,1V0a9.8,9.8,0,0,1,9.8-9.8,9.8,9.8,0,0,1,9.8,9.8V1Z"/></clipPath><clipPath id="clip-path-38"><path class="cls-1" d="M448.9,1V0a9.8,9.8,0,0,1,19.6,0V1Z"/></clipPath><clipPath id="clip-path-39"><path class="cls-1" d="M459.68,123.63h-1a9.8,9.8,0,0,1,0-19.6h1Z"/></clipPath><clipPath id="clip-path-40"><path class="cls-1" d="M564.82,1V0a9.8,9.8,0,0,1,9.8-9.8,9.8,9.8,0,0,1,9.8,9.8V1Z"/></clipPath><clipPath id="clip-path-41"><path class="cls-1" d="M575.6,101.45h-1a6,6,0,0,1,0-12h1Z"/></clipPath><clipPath id="clip-path-42"><path class="cls-1" d="M1029.21,1V0a6,6,0,0,1,6-6,6,6,0,0,1,6,6V1Z"/></clipPath><clipPath id="clip-path-43"><path class="cls-1" d="M762.4,55.94v1a6,6,0,0,1-12,0v-1Z"/></clipPath><clipPath id="clip-path-44"><path class="cls-1" d="M750.4,1V0a6,6,0,0,1,6-6,6,6,0,0,1,6,6V1Z"/></clipPath><clipPath id="clip-path-45"><path class="cls-1" d="M834.92,55.94v1a6,6,0,0,1-12,0v-1Z"/></clipPath><clipPath id="clip-path-46"><path class="cls-1" d="M822.92,1V0a6,6,0,0,1,6-6,6,6,0,0,1,6,6V1Z"/></clipPath><clipPath id="clip-path-47"><path class="cls-1" d="M575.6,24.78h-1a9.5,9.5,0,1,1,0-19h1Z"/></clipPath><clipPath id="clip-path-48"><path class="cls-1" d="M725.05,44.42v1a9.5,9.5,0,0,1-19,0v-1Z"/></clipPath><clipPath id="clip-path-49"><path class="cls-1" d="M978.22,1V0a9.5,9.5,0,0,1,9.5-9.5,9.5,9.5,0,0,1,9.5,9.5V1Z"/></clipPath><clipPath id="clip-path-50"><path class="cls-1" d="M1425,1V0a9.5,9.5,0,0,1,9.5-9.5A9.5,9.5,0,0,1,1444,0V1Z"/></clipPath><clipPath id="clip-path-51"><path class="cls-1" d="M1217.2,80.6v-1a9.5,9.5,0,0,1,19,0v1Z"/></clipPath><clipPath id="clip-path-52"><path class="cls-1" d="M1483.75,1V0a9.5,9.5,0,0,1,9.5-9.5,9.5,9.5,0,0,1,9.5,9.5V1Z"/></clipPath><clipPath id="clip-path-53"><path class="cls-1" d="M1259.49,29.44v-1a5,5,0,0,1,10,0v1Z"/></clipPath><clipPath id="clip-path-54"><path class="cls-1" d="M1326.68,119.49v1a5,5,0,1,1-10,0v-1Z"/></clipPath><clipPath id="clip-path-55"><path class="cls-1" d="M1499.34,120.87h-1a5,5,0,0,1,0-10h1Z"/></clipPath><clipPath id="clip-path-56"><path class="cls-1" d="M1920,44h1a5,5,0,0,1,0,10h-1Z"/></clipPath><clipPath id="clip-path-57"><path class="cls-1" d="M1553.92,114.89v1a5,5,0,0,1-10,0v-1Z"/></clipPath><clipPath id="clip-path-58"><path class="cls-1" d="M1632.55,114.89v1a5,5,0,1,1-10,0v-1Z"/></clipPath><clipPath id="clip-path-59"><path class="cls-1" d="M1628.53,79.46h-1a5,5,0,0,1,0-10h1Z"/></clipPath><clipPath id="clip-path-60"><path class="cls-1" d="M1736.87,69.46h1a5,5,0,0,1,0,10h-1Z"/></clipPath><clipPath id="clip-path-61"><path class="cls-1" d="M1593.23,39.32v1a5,5,0,0,1-10,0v-1Z"/></clipPath><clipPath id="clip-path-62"><path class="cls-1" d="M1583.23,1V0a5,5,0,0,1,5-5,5,5,0,0,1,5,5V1Z"/></clipPath><clipPath id="clip-path-63"><path class="cls-1" d="M1653,85h-1a10.5,10.5,0,0,1,0-21h1Z"/></clipPath><clipPath id="clip-path-64"><path class="cls-1" d="M1708.32,64h1a10.5,10.5,0,1,1,0,21h-1Z"/></clipPath><clipPath id="clip-path-65"><path class="cls-1" d="M1852.7,112.7h-1a5,5,0,0,1,0-10h1Z"/></clipPath><clipPath id="clip-path-66"><path class="cls-1" d="M1773.77,1V0a8,8,0,0,1,8-8,8,8,0,0,1,8,8V1Z"/></clipPath><clipPath id="clip-path-67"><path class="cls-1" d="M1920,178.34h1a8,8,0,0,1,0,16h-1Z"/></clipPath><clipPath id="clip-path-68"><path class="cls-1" d="M1543.92,171.24v-1a5,5,0,0,1,10,0v1Z"/></clipPath><clipPath id="clip-path-69"><path class="cls-1" d="M1671.83,116.85v-1a5,5,0,1,1,10,0v1Z"/></clipPath><clipPath id="clip-path-70"><path class="cls-1" d="M1711.46,116.85v-1a7.5,7.5,0,1,1,15,0v1Z"/></clipPath><clipPath id="clip-path-71"><path class="cls-1" d="M1620.05,146.72v-1a7.5,7.5,0,0,1,15,0v1Z"/></clipPath><linearGradient id="linear-gradient-35" x1="71.31" y1="200.23" x2="71.31" y2="180.63" gradientUnits="userSpaceOnUse"><stop offset="0" stop-color="#1a3581"/><stop offset="0.78" stop-color="#182460"/><stop offset="1" stop-color="#1a3581"/></linearGradient><clipPath id="clip-path-72"><path class="cls-1" d="M1,397.84H0A9.8,9.8,0,0,1-9.8,388a9.8,9.8,0,0,1,9.8-9.8H1Z"/></clipPath><clipPath id="clip-path-73"><path class="cls-1" d="M141.64,269.48h1a9.8,9.8,0,0,1,0,19.6h-1Z"/></clipPath><clipPath id="clip-path-74"><path class="cls-1" d="M0,51.72H-1a4,4,0,0,1-4-4,4,4,0,0,1,4-4H0Z"/></clipPath><clipPath id="clip-path-75"><path class="cls-1" d="M141.64,144h1a4,4,0,0,1,0,8h-1Z"/></clipPath><clipPath id="clip-path-76"><path class="cls-1" d="M181,1V0a4,4,0,0,1,4-4,4,4,0,0,1,4,4V1Z"/></clipPath><clipPath id="clip-path-77"><path class="cls-1" d="M288.7,63.87h1a4,4,0,0,1,0,8h-1Z"/></clipPath><clipPath id="clip-path-78"><path class="cls-1" d="M258.62,93.36v-1a4,4,0,0,1,8,0v1Z"/></clipPath><clipPath id="clip-path-79"><path class="cls-1" d="M317.34,158v-1a4,4,0,1,1,8,0v1Z"/></clipPath><clipPath id="clip-path-80"><path class="cls-1" d="M147.68,171.45h-1a4,4,0,0,1,0-8h1Z"/></clipPath><clipPath id="clip-path-81"><path class="cls-1" d="M261.64,188.47h1a4,4,0,0,1,0,8h-1Z"/></clipPath><clipPath id="clip-path-82"><path class="cls-1" d="M261.64,127.51h1a9.8,9.8,0,1,1,0,19.6h-1Z"/></clipPath><clipPath id="clip-path-83"><path class="cls-1" d="M209.61,166.47v1a9.8,9.8,0,0,1-19.6,0v-1Z"/></clipPath><clipPath id="clip-path-84"><path class="cls-1" d="M1813.53,106.13v-1a5,5,0,0,1,10,0v1Z"/></clipPath><clipPath id="clip-path-85"><path class="cls-1" d="M1919,416.49h1a5,5,0,0,1,0,10h-1Z"/></clipPath><clipPath id="clip-path-86"><path class="cls-1" d="M1719.94,151h-1a7.5,7.5,0,0,1,0-15h1Z"/></clipPath><clipPath id="clip-path-87"><path class="cls-1" d="M1864.28,320.54h1a7.5,7.5,0,0,1,0,15h-1Z"/></clipPath><clipPath id="clip-path-88"><path class="cls-1" d="M1919,267h1a10.5,10.5,0,0,1,0,21h-1Z"/></clipPath><clipPath id="clip-path-89"><path class="cls-1" d="M1919,345.65h1a10.5,10.5,0,0,1,0,21h-1Z"/></clipPath><clipPath id="clip-path-90"><path class="cls-1" d="M1494.23,135.43h-1a5,5,0,0,1,0-10h1Z"/></clipPath><clipPath id="clip-path-91"><path class="cls-1" d="M1626.57,166h1a5,5,0,0,1,0,10h-1Z"/></clipPath><clipPath id="clip-path-92"><path class="cls-1" d="M1919,221.17h1a5,5,0,0,1,0,10h-1Z"/></clipPath><clipPath id="clip-path-93"><path class="cls-1" d="M1749.38,292.15h1a5,5,0,0,1,0,10h-1Z"/></clipPath></defs><title>Artboard 4</title><g class="cls-2"><g id="Slide-4"><g class="cls-3"><rect class="cls-4" y="443.87" width="1920" height="269.54"/></g><rect class="cls-5" y="596.46" width="1920" height="483.54"/><rect class="cls-6" y="1013.3" width="1920" height="66.7"/><rect class="cls-7" width="1920" height="797.61"/><g class="cls-8"><rect class="cls-9" width="1920" height="797.61"/></g><path class="cls-10" d="M1538.24,397.67a55.76,55.76,0,0,1-13.19-1.82c-4.92-1.5-9.6-4.36-14.58-5.42s-10.61.08-14,5.27c-8.71-12.28-24.16-13.82-34-3.37-10-14.8-25.74-21.77-40.12-17.83-11.72-21.58-37.42-24.7-51.67-6.29-8-4.76-17.65-3.87-25.13,2.33-11.71-10.75-29.67-4.55-36.36,12.56-6.86-.8-13.11,3.24-19.73,5.14-34.83,10-46.57,11.72-70.27,12.82l88.08,4.19c3.78.18,9.84,6.35,15,6.71a42.78,42.78,0,0,0,23.09-4.89c7,4.95,15.49,2.78,23-.31a9.13,9.13,0,0,1,3.58-.95,11.1,11.1,0,0,1,4.3,1.51c15.75,7.44,38.08-.53,54.77.69,29.62,2.15,59.75-.19,89.41-.42,27.68-.23,59.83,5.7,86.92-1.21-24.8-6.19-16.92-5.74-24.8-6.19Z"/><path class="cls-11" d="M973.48,240.81c5.06-8.28,16.67-11.8,25.48-7.72,26-25.84,73.4-25.29,98.8,1.15a36.69,36.69,0,0,1,39.16,2c4.48-11.35,15.81-19.15,27.82-21.3s24.51.77,35.46,6.15c15.9-20.12,45.44-28.13,69.32-18.81,3.42,1.33,6.78,3,10.42,3.51s7.29-.17,10.94-.2c14.69-.12,28.58,11.55,31,26,15.85-4.24,34.15,5.25,39.8,20.65a47.78,47.78,0,0,1,39.77,11.57c-10.82-1.93-21.89-1.58-32.87-1.22l-173.87,5.63c-52.78,1.7-105.69,3.41-158.36-.54-16-1.21-32.07-2.94-48-5.35-15.32-2.32-30.53-5.26-45.74-8.2-9.22-2-25.55,2.32-35.6,1.87q-22.93-1-45.82-2.62c23.48-3.25,48.26-6.35,71.26-11.19C934.73,241.78,976.41,236,973.48,240.81Z"/><path class="cls-12" d="M448.65,354.21a12.76,12.76,0,0,1,10-11.41c2.57-.5,5.27-.19,7.81-.84,3.67-.93,6.52-3.73,9.65-5.87,12.25-8.37,30.74-5.69,40.11,5.82,10.35-8.35,27.57-6,35.29,4.84a25.29,25.29,0,0,1,26.37-6.95c3.56,1.2,6.89,3.23,10.62,3.66,3.4.4,6.78-.57,10.16-1.06a36.41,36.41,0,0,1,27.79,7.72c3.12,2.53,5.87,5.64,9.52,7.33,3.44,1.6,7.34,1.78,11.13,1.93l133.5,5.44-56.43,4.31c-12.11.92-24.23,1.84-36.35,2.64-95.62,5.36-190.71-1-286.18-8C405.15,362.77,448.39,355.81,448.65,354.21Z"/><circle class="cls-9" cx="940.04" cy="291.5" r="64.45" transform="matrix(0.16, -0.99, 0.99, 0.16, 498.8, 1171.25)"/><g class="cls-13"><circle class="cls-4" cx="940.04" cy="291.5" r="64.45" transform="matrix(0.16, -0.99, 0.99, 0.16, 498.8, 1171.25)"/></g><rect class="cls-14" y="443.87" width="1920" height="269.54"/><path class="cls-15" d="M1549.3,576.74s-81.37-.63-203.4,11.13c-130.07,12.53-165.93,20.84-313.39,20.62l115.27,10.76,466.8-6.24Z"/><path class="cls-16" d="M1807.71,599c-97-12.52-158.91-20.46-258.41-22.3-84.19-1.56,202.71,33.19-180.53,36.27-24.89.2-194.86,6.33-188.63,18.52,7.46,14.62,67.64,7.72,89.82,7,155.9-4.81,215.51-10.46,368.26-10.58,70.55-.06,183.5.51,281.78-.61V612.45C1882.14,608.35,1844.54,603.79,1807.71,599Z"/><g class="cls-17"><rect class="cls-18" y="596.46" width="1920" height="483.54"/></g><path class="cls-19" d="M1101.69,608.43c72.43,2,150.38-25.77,221-32.47,44.4-4.22,94.87,9.42,141.45,7.14,63.58-3.1,125.49,3.81,189.54-2.06,86.29-7.92,180-17.36,266.29-14.41v60.22H1007.29Z"/><g class="cls-20"><path class="cls-21" d="M1101.69,608.43c72.43,2,150.38-25.77,221-32.47,44.4-4.22,94.87,9.42,141.45,7.14,63.58-3.1,125.49,3.81,189.54-2.06,86.29-7.92,180-17.36,266.29-14.41v60.22H1007.29Z"/></g><path class="cls-22" d="M526.09,557.91s-156.56,9.84-520.34,32V613l548-1.68Z"/><g class="cls-23"><path class="cls-24" d="M526.09,557.91s-156.56,9.84-520.34,32V613l548-1.68Z"/></g><path class="cls-25" d="M526.09,557.91c128.84,3.65,209.14,12.68,334.89,28.91C962.9,600,1069.39,612,1173.91,619.34c-134.78,6.58-395.49,4.87-532.59,5-198,.16-275.2,7.48-477.23,13.71-28.74.89-99.23,8.25-116.41-9.1-33.51-33.88,84.87-31.81,117.06-30.69C512.22,610.25,419.05,554.88,526.09,557.91Z"/><g class="cls-26"><path class="cls-27" d="M526.09,557.91c128.84,3.65,209.14,12.68,334.89,28.91C962.9,600,1069.39,612,1173.91,619.34c-134.78,6.58-395.49,4.87-532.59,5-198,.16-275.2,7.48-477.23,13.71-28.74.89-99.23,8.25-116.41-9.1-33.51-33.88,84.87-31.81,117.06-30.69C512.22,610.25,419.05,554.88,526.09,557.91Z"/></g><rect class="cls-28" x="66.32" y="758.86" width="555.81" height="18.42" transform="translate(688.45 1536.15) rotate(180)"/><rect class="cls-29" x="575.52" y="680.24" width="555.82" height="18.42" transform="translate(1706.85 1378.89) rotate(180)"/><path class="cls-30" d="M369.53,622.24c216.06,0,427.12-5.79,637.76,4.61,58.7,2.89,111.84,6.69,170,9.22C1099,678.24,963.19,696.4,475.71,713.41a74.57,74.57,0,0,0,17-5.18c-89.88.82-121.86-3.87-203.06-72.06C318,632.29,357.88,626.39,369.53,622.24Z"/><g class="cls-31"><path class="cls-32" d="M369.53,622.24c216.06,0,427.12-5.79,637.76,4.61,58.7,2.89,111.84,6.69,170,9.22C1099,678.24,963.19,696.4,475.71,713.41a74.57,74.57,0,0,0,17-5.18c-89.88.82-121.86-3.87-203.06-72.06C318,632.29,357.88,626.39,369.53,622.24Z"/></g><path class="cls-33" d="M0,553.17c91.14,0,186-2.95,272.91,14.84,36.12,7.39,72,23.69,110.43,26.6,33.15,2.52,63.47-5.77,96.7-4.6,163.72,5.77,191.48,27.21,354.57,36.84,80.77,4.76,316.75,14.21,313.13,14.88,0,0-258,7.08-340.76,5.9-146.46-2.1-142.75-.35-345-1.32,25.63,18.68,164.09,33.61,225.27,58.82-185,9.55-502.7,9.1-687.26,25.35Z"/><g class="cls-34"><path class="cls-35" d="M0,553.17c91.14,0,186-2.95,272.91,14.84,36.12,7.39,72,23.69,110.43,26.6,33.15,2.52,63.47-5.77,96.7-4.6,163.72,5.77,191.48,27.21,354.57,36.84,80.77,4.76,316.75,14.21,313.13,14.88,0,0-258,7.08-340.76,5.9-146.46-2.1-142.75-.35-345-1.32,25.63,18.68,164.09,33.61,225.27,58.82-185,9.55-502.7,9.1-687.26,25.35Z"/></g><path class="cls-36" d="M0,674.06c18.63,29.24,122.91-8.39,157.47-10.36,31.88-1.82,58.32,6.16,88.75,9.3,40.08,4.14,76.06-5.12,116.62-4.71,59,.6,117.44,12.48,176.31,18.18,38,3.68,70.84,13,109.75,9.31,26.42-2.54,53.38-11.9,79.8-12.89,58.14-2.18,119,8.45,178.19,8.42C669.46,708.4,453.45,765,190,773.17,114,775.54,70.21,792.62,0,792.62Z"/><g class="cls-37"><path class="cls-38" d="M0,674.06c18.63,29.24,122.91-8.39,157.47-10.36,31.88-1.82,58.32,6.16,88.75,9.3,40.08,4.14,76.06-5.12,116.62-4.71,59,.6,117.44,12.48,176.31,18.18,38,3.68,70.84,13,109.75,9.31,26.42-2.54,53.38-11.9,79.8-12.89,58.14-2.18,119,8.45,178.19,8.42C669.46,708.4,453.45,765,190,773.17,114,775.54,70.21,792.62,0,792.62Z"/></g><rect class="cls-39" x="315.51" y="837.13" width="801.52" height="26.29"/><rect class="cls-40" x="787.38" y="682.87" width="852.74" height="36.84"/><path class="cls-41" d="M1302.84,625.51c43.93,18.94,365.09,23.33,338.3,92.26,38.45,27.19,238.27,12.06,188.7-58.12-24.35,2.16-42-11.19-69.67-12.37Z"/><path class="cls-42" d="M641.32,1013.3c20.77,0,61.49-43.71,84.41-53.09,32-13.11,67.49-15.06,100.69-23.82,45.4-12,81.75-28.28,123.48-54,44.3-27.27,78.9-45.39,130.66-52.56,57.45-8,83.64-22.55,135.24-47.47,107.18-51.77,251-52.85,367.53-72.59,39.46-6.69,195.71-15.42,208.49-49.91-76.89-12.28-157.27-16.36-236.55-21.34-41-2.58-83.94-2.43-126.88-4.39-37.07-1.69-86.37-4.67-125.55-8.64L1920,626.85V1013.3Z"/><g class="cls-43"><path class="cls-44" d="M641.32,1013.3c20.77,0,61.49-43.71,84.41-53.09,32-13.11,67.49-15.06,100.69-23.82,45.4-12,81.75-28.28,123.48-54,44.3-27.27,78.9-45.39,130.66-52.56,57.45-8,83.64-22.55,135.24-47.47,107.18-51.77,251-52.85,367.53-72.59,39.46-6.69,195.71-15.42,208.49-49.91-76.89-12.28-157.27-16.36-236.55-21.34-41-2.58-83.94-2.43-126.88-4.39-37.07-1.69-86.37-4.67-125.55-8.64L1920,626.85V1013.3Z"/></g><path class="cls-45" d="M1199.64,618.65c-6.62-.44-13.29-.93-19.67-1.87,1-.25,81.36-14.77,95.26-16.41,55.64-6.46,111.42-11.92,167.21-17.23-55.91,3.86-270.66,27.33-306,34.5,28.65,3,100,7.19,114,8.12l27.32-.25c-26.6,2.46-359.33,33.13-412,41.51,82.42,8.13,357.06,22.08,357.06,22.08-7.48,1.76-15,3.45-22.57,5.08C1173.14,700,0,889.32,0,889.32V1062.2s1336.45-362,1379.78-380.47c-66.53-6.21-385.46-18-392.31-18.3,6.9-.7,283.78-29.48,342.29-39.18C1318.15,625.59,1213.54,619.54,1199.64,618.65Zm69.28,73.81-.27-.13a1.39,1.39,0,0,1,.37.16ZM941.45,670c-.12.07-.09,0,0,0ZM1299,630.32l.08,0Z"/><g class="cls-46"><path class="cls-47" d="M1199.64,618.65c-6.62-.44-13.29-.93-19.67-1.87,1-.25,81.36-14.77,95.26-16.41,55.64-6.46,111.42-11.92,167.21-17.23-55.91,3.86-270.66,27.33-306,34.5,28.65,3,100,7.19,114,8.12l27.32-.25c-26.6,2.46-359.33,33.13-412,41.51,82.42,8.13,357.06,22.08,357.06,22.08-7.48,1.76-15,3.45-22.57,5.08C1173.14,700,0,889.32,0,889.32V1062.2s1336.45-362,1379.78-380.47c-66.53-6.21-385.46-18-392.31-18.3,6.9-.7,283.78-29.48,342.29-39.18C1318.15,625.59,1213.54,619.54,1199.64,618.65Zm69.28,73.81-.27-.13a1.39,1.39,0,0,1,.37.16ZM941.45,670c-.12.07-.09,0,0,0ZM1299,630.32l.08,0Z"/></g><path class="cls-48" d="M768,135.42c-.06,3.47.83,7-1,10.34a22.81,22.81,0,0,1-5.81,7.09l-1.24,1c-1.62,1.37-3.47,2.79-2,4.83,1.23,1.69,4.1,2.13,5,4a11.26,11.26,0,0,0-6.09,1.72c-1.87,1.08-4.16,1.33-6.16,2.11a9.7,9.7,0,0,1-5.72.59c-.63-.14-1.29.6-.85,1.53l-3.15.39c-1.24-1.43,1.08-.88.91-1.91-1.25-1.1-3.07.27-4.76-.89a27.94,27.94,0,0,1,3.64-1.42c1.46-.33,3-.64,3.32-2.25.39-1.86-1.81-1.63-2.65-2.22-2.55-1.78-4.87-3.87-7.44-5.63-2.12-1.46-3.53-3-6.08-4a11.74,11.74,0,0,1-6.55-8c1.7,1.5,3.3,3.4,5.32,4.64,6.95,4.29,15.16,5.81,21.69,11,.4.32.71,1,1.12.07,1.09-2.52,3.37-4,5.18-5.85a21.5,21.5,0,0,0,4.2-5.07c.49-1,1.2-3.12,3.4-1.5.84.62,1.45-.23,1.34-1.26a11.19,11.19,0,0,1,2.23-8.3C766.73,136.65,766.82,135,768,135.42Z"/><path class="cls-48" d="M686.63,120.1c.56,0,1.11.07,1.67.07,1.53,0,3-.38,4.51-.39-.76,1.87-2.69,1.91-4.36,1.84-1.5-.07-3-.26-4.51-.22a11.44,11.44,0,0,0-3.58.91c-2.9.93-6.4.24-9.39.29-2.32,0-4.75.05-6.65,1.72-1.49,1.29-2,3.31-3.34,4.73a6.89,6.89,0,0,1-2.54,1.76c-1,.43-1,.78-1,1.95l-.5.16c-.27,0-.49,0-.46.37-.32.26-.64.37-1,0,.3-1.37-.2-1.76-1.42-1.71-1.74.06-4.15-.42-4.49-1.9-.6-2.58-2-1.77-2.85-1.27a14.78,14.78,0,0,0-2.75,1.89c-.75.69-1.17,1.6-1.89,2.3a15.22,15.22,0,0,1-5.42,3.12,29.8,29.8,0,0,1-3.44,1.26,16.08,16.08,0,0,1-3.17.32,2.4,2.4,0,0,1-1.09-.19c-.19-.1-.79-.83-.87-.84a8.5,8.5,0,0,0,5.69-2.17,26.26,26.26,0,0,1,5.84-3.17c1.89-.9,3.55-2.28,5.36-3.35,1.19-.7,2.28-1.63,3.51-2.23s2.4-.77,3.52-1.39a34.62,34.62,0,0,1,3.81-2,28.11,28.11,0,0,0,3.37-1.39c1.2-.69,2.08-1.81,3.57-1.16.64.28,1,1.15,1.71,1.31a6.18,6.18,0,0,0,2.44-.58c5.24-1.49,10.53-1.11,15.78-.31,1.06.16,2.27.18,3.36.24Z"/><path class="cls-49" d="M467.21,827.25s0,.65-6.52.65-6.53-.65-6.53-.65l5.27-33.11h2.51Z"/><path class="cls-50" d="M455,778.58h11.31a1.59,1.59,0,0,1,1.59,1.59v14.16a.63.63,0,0,1-.63.63H454.07a.63.63,0,0,1-.63-.63V780.17A1.59,1.59,0,0,1,455,778.58Z"/><polyline class="cls-51" points="577.02 966.54 577.02 777.28 458.86 777.28"/><path class="cls-52" d="M113.24,846.43c15.08-21.77,34.5-23,56.43-10.13,7.81-9.66,21.92-8.45,25.77,3.89,8.66-6.3,17,2,25,4.78-15,6.79-42.81,2.11-59.42,4-21.64,2.44-44.75,8.31-67.29,3.12C102.26,853.15,110.37,846.22,113.24,846.43Z"/><path class="cls-53" d="M157.7,1024.39c3.09-14.61,18.13-14.53,29.43-18.77,14.65-5.5,27.32-17.83,42.64-21.21,11-2.42,23.65,2.44,34.66.13,22.14-4.64,35.48-22.9,60.57-16.18,21.25,5.68,26.64,27.82,43,31.43,13.79,3,32.21,3.36,46.43,9.57,14.89,6.5,28.16,13.75,45.41,18.14-22.72-.9-45.26,4.86-68,3.11-34-2.63-67.64-2-101.82-3.49-31.55-1.39-62.71-.91-94.2.3-13.52.53-30.7-1-43.75,3.3C154,1027.29,156.34,1024.12,157.7,1024.39Z"/><g class="cls-54"><path class="cls-55" d="M157.7,1024.39c3.09-14.61,18.13-14.53,29.43-18.77,14.65-5.5,27.32-17.83,42.64-21.21,11-2.42,23.65,2.44,34.66.13,22.14-4.64,35.48-22.9,60.57-16.18,21.25,5.68,26.64,27.82,43,31.43,13.79,3,32.21,3.36,46.43,9.57,14.89,6.5,28.16,13.75,45.41,18.14-22.72-.9-45.26,4.86-68,3.11-34-2.63-67.64-2-101.82-3.49-31.55-1.39-62.71-.91-94.2.3-13.52.53-30.7-1-43.75,3.3C154,1027.29,156.34,1024.12,157.7,1024.39Z"/></g><path class="cls-56" d="M338.83,1044.29c-6.16-.52-10.8-1.16-12.05-1.86,15.29-15.37,34.72-16,52-26.42,7.6-4.58,12-14.06,19.58-19.12,9.36-6.23,20.82-7.85,30.69-13,10.14-5.34,22.81-13,36.41-11.66,12,1.19,31,6.66,40.76,11.7,7.48,3.86,12.11,10.32,20.65,13.79,20,8.12,35.42,14.09,57.17,10.13,34.83-6.35,64.7,11.94,98.18,15-5.81,4.09-8.16,1.67-19,2.22-20.13,1-39.41,2.55-59.1,5.94-9.25,1.6-17.65,1.89-26.92,2.58-26.52,2-62.77,0-86.75,9.22,1.22,1.91,1.22,2.52,3,4.37-36.36,2.72-75,3.79-111.54,1.53.77-1,2.1-3.06,2.83-4C383.37,1046.29,355.53,1045.72,338.83,1044.29Z"/><g class="cls-57"><path class="cls-55" d="M338.83,1044.29c-6.16-.52-10.8-1.16-12.05-1.86,15.29-15.37,34.72-16,52-26.42,7.6-4.58,12-14.06,19.58-19.12,9.36-6.23,20.82-7.85,30.69-13,10.14-5.34,22.81-13,36.41-11.66,12,1.19,31,6.66,40.76,11.7,7.48,3.86,12.11,10.32,20.65,13.79,20,8.12,35.42,14.09,57.17,10.13,34.83-6.35,64.7,11.94,98.18,15-5.81,4.09-8.16,1.67-19,2.22-20.13,1-39.41,2.55-59.1,5.94-9.25,1.6-17.65,1.89-26.92,2.58-26.52,2-62.77,0-86.75,9.22,1.22,1.91,1.22,2.52,3,4.37-36.36,2.72-75,3.79-111.54,1.53.77-1,2.1-3.06,2.83-4C383.37,1046.29,355.53,1045.72,338.83,1044.29Z"/></g><path class="cls-58" d="M269.32,1051.68c12.63-23.26,38.79-16.69,62.13-15.35,17.67,1,21.8,9,34.69,15.94,8.09,4.4,22.88.63,27.5,9.93-27.76,1.47-54.28.88-82,.57-12.38-.13-43.85,8.07-51.73-1.8C264.48,1055.23,270.52,1049,269.32,1051.68Z"/><path class="cls-59" d="M607.81,941c1,1.52,3.89,1.24,5.57,1.83a11.31,11.31,0,0,0,2.85,1.1,34.39,34.39,0,0,0,6.11.22c1.5,0,6.6-1.15,6.83-2.76l-.23-.11a2.59,2.59,0,0,0-1.57-2.59c-1.35-.76-2.65-1.31-4-2.25-1.58-1.1-2.89-2.55-4.36-3.72a3.7,3.7,0,0,0,0-.47c-.38-3.36.33-5.67-.15-9-.59-4,.34-9.26,1.19-13.25a16.42,16.42,0,0,1,3.69-7.45c1.67-2,1.39-3.21,1.89-5.45,1.27-5.74,4.3-10.9,6.09-17.08.28,3.38.5,7.88,1,11.73.41,3.37,1.26,6.26.6,9.61-.36,1.88-1.37,3.47-1.72,5.38-.84,4.58-.61,9.54-.95,14.22a54.08,54.08,0,0,0,.28,8c.12,1.62-1.17,3.33-1,4.63.13,1,1.16,1.87,1.46,2.83,0,.12.07.25.11.37A7.12,7.12,0,0,0,631,938a10.33,10.33,0,0,0-.29,3c.12,2,0,5.52,1,7.36.6,1.14,1,1.16,2.29,1.32,2.49.3,4.91-.43,7.47-.1s5.72,1,8.55.83,6.84-.7,5.15-4.06a3.9,3.9,0,0,0-1.84-1.61c-1.7-.88-2.9-.35-4.49-1.34-1.43-.88-3.87-2.24-4.86-3.69s-.45-1.49-.59-3.26a18.58,18.58,0,0,0-.56-2.37,8.1,8.1,0,0,1,.15-3c.21-2.44-.44-5-.34-7.7A106.52,106.52,0,0,1,644,908.64c.5-2.74,2-4.14,2.75-6.61.53-1.85,0-4,.22-6a40,40,0,0,1,1.46-6.18,67.12,67.12,0,0,0,1.54-15.43,43.28,43.28,0,0,0-.28-6.68l.05-.05c.29-.41-.06-.54.09-1a8.7,8.7,0,0,0,.34-2.59,9.32,9.32,0,0,0,2.8-3.22,36.21,36.21,0,0,0,3.73-14.39h6.2l4.67-27.39H651.67a21.2,21.2,0,0,1-.6-2.17c-.29-1.41-1-3.13-1.13-4.48s.63-2.7.19-3.94c-.69-2-5.07-3.39-7-4.32-1.41-.68-3-1-4-2.1,0,0-.06-.08-.09-.11a15,15,0,0,0-1.64-3,7.31,7.31,0,0,0,.21-1.5c.84-.3,2.22-.41,2.88-1,1.75-1.49.82-4.81.9-6.77a20.43,20.43,0,0,0,.1-3.68c0-.2-.2-.82-.39-1.5,1.08-.81,1.8-1.9,3-2.61.48-.28,1.82-.68,1.9-1.25s-1.47-1.92-2-2.13c-.84-.36-2.19.29-2.87-.08-.45-.24-1-1.57-1.35-2a15.61,15.61,0,0,0-2.72-2.91c-.69-.64-1.1-1.49-1.78-2.06-2.82-2.36-8.41,1.54-10.46,3.59a8.84,8.84,0,0,0-3,5.5c-.11,1.1.12,2.24,0,3.33s-.57,1.51-.7,2.34c-.34,2.1,1.82,4.17,3.89,4.77.2,1.26.49,2.5.74,3.6s.35,2.17.56,3.2c-1.22.2-2.76.4-3.34,1-.83.82-.34,2.34-1.15,3.28-1.3,1.53-3.64,1.59-5.26,2.53a13,13,0,0,0-4.71,5c-2.07,3.63-.87,6.78.24,10.7.58,2.05,1.29,4.65-1.3,5.51a4.08,4.08,0,0,0,.49,1.34c1.26-.12,1.67-.55,2.09.58.18.48-.31,1.59-.26,2.15a5.46,5.46,0,0,0,1,2.41c2.08,3.93,1.11,8.9,1.46,13.17.25,2.94-.59,7,.77,9.79.56,1.15.93,1.08,1,2.35,0,1.66-2.31,5.41-1.61,6.95a2.49,2.49,0,0,0,1.52,1.14A21.23,21.23,0,0,0,615.9,869c-1.16,3.78-.32,8.77-.43,12.31-.07,2.58.57,6.19-.34,8.59-.44,1.14-1.47,2.15-1.94,3.35s-1.05,2.52-1.45,3.8c-1.13,3.55-2,7-3.54,10.46a15.45,15.45,0,0,0-1.34,7.35c.09,2.09.47,4.17.56,6.26.07,1.41-.4,3.29,1.11,4.22-1,1.19-1.36.79-1.47,2.53s-.44,5.4.53,6.7a4.8,4.8,0,0,0,.51.56c-.11.6-.2,1.24-.29,1.88C607.66,938.05,607.14,940,607.81,941Zm20.91.14c-.6-.41-.76-.9,0,0Z"/><g class="cls-60"><path class="cls-61" d="M607.81,941c1,1.52,3.89,1.24,5.57,1.83a11.31,11.31,0,0,0,2.85,1.1,34.39,34.39,0,0,0,6.11.22c1.5,0,6.6-1.15,6.83-2.76l-.23-.11a2.59,2.59,0,0,0-1.57-2.59c-1.35-.76-2.65-1.31-4-2.25-1.58-1.1-2.89-2.55-4.36-3.72a3.7,3.7,0,0,0,0-.47c-.38-3.36.33-5.67-.15-9-.59-4,.34-9.26,1.19-13.25a16.42,16.42,0,0,1,3.69-7.45c1.67-2,1.39-3.21,1.89-5.45,1.27-5.74,4.3-10.9,6.09-17.08.28,3.38.5,7.88,1,11.73.41,3.37,1.26,6.26.6,9.61-.36,1.88-1.37,3.47-1.72,5.38-.84,4.58-.61,9.54-.95,14.22a54.08,54.08,0,0,0,.28,8c.12,1.62-1.17,3.33-1,4.63.13,1,1.16,1.87,1.46,2.83,0,.12.07.25.11.37A7.12,7.12,0,0,0,631,938a10.33,10.33,0,0,0-.29,3c.12,2,0,5.52,1,7.36.6,1.14,1,1.16,2.29,1.32,2.49.3,4.91-.43,7.47-.1s5.72,1,8.55.83,6.84-.7,5.15-4.06a3.9,3.9,0,0,0-1.84-1.61c-1.7-.88-2.9-.35-4.49-1.34-1.43-.88-3.87-2.24-4.86-3.69s-.45-1.49-.59-3.26a18.58,18.58,0,0,0-.56-2.37,8.1,8.1,0,0,1,.15-3c.21-2.44-.44-5-.34-7.7A106.52,106.52,0,0,1,644,908.64c.5-2.74,2-4.14,2.75-6.61.53-1.85,0-4,.22-6a40,40,0,0,1,1.46-6.18,67.12,67.12,0,0,0,1.54-15.43,43.28,43.28,0,0,0-.28-6.68l.05-.05c.29-.41-.06-.54.09-1a8.7,8.7,0,0,0,.34-2.59,9.32,9.32,0,0,0,2.8-3.22,36.21,36.21,0,0,0,3.73-14.39h6.2l4.67-27.39H651.67a21.2,21.2,0,0,1-.6-2.17c-.29-1.41-1-3.13-1.13-4.48s.63-2.7.19-3.94c-.69-2-5.07-3.39-7-4.32-1.41-.68-3-1-4-2.1,0,0-.06-.08-.09-.11a15,15,0,0,0-1.64-3,7.31,7.31,0,0,0,.21-1.5c.84-.3,2.22-.41,2.88-1,1.75-1.49.82-4.81.9-6.77a20.43,20.43,0,0,0,.1-3.68c0-.2-.2-.82-.39-1.5,1.08-.81,1.8-1.9,3-2.61.48-.28,1.82-.68,1.9-1.25s-1.47-1.92-2-2.13c-.84-.36-2.19.29-2.87-.08-.45-.24-1-1.57-1.35-2a15.61,15.61,0,0,0-2.72-2.91c-.69-.64-1.1-1.49-1.78-2.06-2.82-2.36-8.41,1.54-10.46,3.59a8.84,8.84,0,0,0-3,5.5c-.11,1.1.12,2.24,0,3.33s-.57,1.51-.7,2.34c-.34,2.1,1.82,4.17,3.89,4.77.2,1.26.49,2.5.74,3.6s.35,2.17.56,3.2c-1.22.2-2.76.4-3.34,1-.83.82-.34,2.34-1.15,3.28-1.3,1.53-3.64,1.59-5.26,2.53a13,13,0,0,0-4.71,5c-2.07,3.63-.87,6.78.24,10.7.58,2.05,1.29,4.65-1.3,5.51a4.08,4.08,0,0,0,.49,1.34c1.26-.12,1.67-.55,2.09.58.18.48-.31,1.59-.26,2.15a5.46,5.46,0,0,0,1,2.41c2.08,3.93,1.11,8.9,1.46,13.17.25,2.94-.59,7,.77,9.79.56,1.15.93,1.08,1,2.35,0,1.66-2.31,5.41-1.61,6.95a2.49,2.49,0,0,0,1.52,1.14A21.23,21.23,0,0,0,615.9,869c-1.16,3.78-.32,8.77-.43,12.31-.07,2.58.57,6.19-.34,8.59-.44,1.14-1.47,2.15-1.94,3.35s-1.05,2.52-1.45,3.8c-1.13,3.55-2,7-3.54,10.46a15.45,15.45,0,0,0-1.34,7.35c.09,2.09.47,4.17.56,6.26.07,1.41-.4,3.29,1.11,4.22-1,1.19-1.36.79-1.47,2.53s-.44,5.4.53,6.7a4.8,4.8,0,0,0,.51.56c-.11.6-.2,1.24-.29,1.88C607.66,938.05,607.14,940,607.81,941Zm20.91.14c-.6-.41-.76-.9,0,0Z"/></g><ellipse class="cls-62" cx="757.39" cy="945.05" rx="158.87" ry="11"/><path class="cls-63" d="M551.57,980.35c23.14-41.8,72-9.33,105.14,0-37.58-3.53-78.75,6.91-116.37,3.4C546.28,981.92,553.59,980.62,551.57,980.35Z"/><path class="cls-64" d="M625.35,956.88c21.74-13,39.5-4.71,61.91,2-17.1,5.79-45.69,4-65.13,2.64a43.52,43.52,0,0,1,8.25-6.37"/><path class="cls-65" d="M1519.55,387.16c-1.12-.14-2.47-.35-2.6,1.18s-1,3.38,1.16,4.31l.42,1c.1.58.24,1.1,1,.76l.24.08.24-.09.06.12c-.16.95.55,1.48,1.05,2.11,0,.72-.08,1.43-.11,2.15-.1.46,0,.74.55.77l.7.24.77.26c.63.35,1.48,1.16,1.86,1,3.63-1.72,7.23,0,10.82,0,5.1.08,5.64,1,3.87,6-4.3,12.16-10.17,23.3-21.17,30.9a5.36,5.36,0,0,0-4.83,3.32c-.94,2,.38,2,1.76,1.76.24.3.47.6.72.9,1.94-.43,2.56,2.83,4.75,1.71l3.15-.34.23.15.24-.14,1.79-.25c5.35,1.09,10.74.51,16.11.31v2.95c-6.68,1.89-13.45.31-20.15.65s-13.37,0-20.06.12c-8.93.13-17.86.18-26.8.25-5.11,0-10.2-.55-15.3-.75-4.6-.18-8.87.64-13.39.7-10.74.13-21.47.15-32.21.13-31.46,0-62.85-.12-94.25-.08-16,0-32-.08-47.94,0-50.33.32-100.77.06-151,.62-13.86.15-27.73.34-41.57-.63-2.94-.21-5.9-.09-8.85-.18-.66,0-1.76.23-1.69-.83.1-1.71,1.14-.4,1.8-.43,2.18-.13,4.54.07,6.5-.69,2.34-.9,1.81-3.71,2.45-5.73,3.43-6.24,8.17-11.53,12.46-17.14,4.89-6.41,4.72-13.18,1.5-20.18-1-2.16-2.06-3.63-4.07-.83-.41.56-1,1.39-1.77.81a20,20,0,0,1-5.08-5c-1.05-1.64.71-2.46,1.26-3.51,1.37-2.6-.14-3.94-1.7-5.57-2.26-2.35-4.69-4.55-6-7.7-.79-1.88-.38-2.32,1.46-2.54,3.8-.45,7.54.1,11.31.34,7.25.45,14.54.6,21.77,1.11,3.83.27,4-.79,3.77-3.62-.06-.61,0-1.24-.06-1.85-.06-4.43-.54-8.91-.07-13.29.44-4.09-1.11-7.86-.76-12,.38-4.35,1.92-8.69,1.14-13.15-.38-2.17-.64-4.35.72-6.61.33,2.58,1.12,5,.85,7.31-.68,5.79,2,11.11,1.16,17.16-1.14,8.15.11,16.62.18,25,0,1.67.67,2.37,2.07,2.32,7.48-.24,14.81,1.44,22.29,1.42a184.35,184.35,0,0,1,23.29,1.86c1.68-4.72-2.23-4.61-5.33-5.21,1.68-1.73,5.82.21,4.42-4.07-3.08-9.42-.54-19-.94-28.58a2.33,2.33,0,0,1,1.55-2.31c1.14-.39,1.88.25,2.16,1.38.23.91.72.89,1.6.86,5.53-.15,5.55-.1,6.07,4.95.06.57-.53,1.36-.31,1.73.9,1.46-.79,3.78,1.18,4.58,2.45,1,2,2.53,1.56,4.39a33.26,33.26,0,0,0-.76,5.45c-.21,3.91,1.79,6,5.61,5.13,4.78-1.06,9.54-.22,14.28-.66,4-.36,9.45,2,11.46-.95s.59-8.07.68-12.24a.49.49,0,0,0,.09-.56c.11-2.92.25-5.85.31-8.78,0-1.33.38-2.51,1.7-2.94s1.74.58,2,1.58,1,.63,1.71.59c5.06-.27,5.06-.24,5.21,4.77.07,2.17-.44,5.06,1.38,6.1s1.9,2.51,2.63,3.87l-.39,1c0,.88,0,1.77,0,2.66l-.68.41c-1,3.52.21,4.9,3.93,4.65,5.36-.36,10.73-.39,16.1-.56,1.11,1.82,2.25,1.76,3.4.05a10.81,10.81,0,0,1,4.6-.08l0,0c1.25,2.1,3,2.67,5.51,2.63,7.37-.14,14.74.08,22.1.1,1.16,0,2.47.56,3.44-.61v.06c3,.55,6,1.22,9,.63a4.78,4.78,0,0,0,.5-.39s-.1-.18-.16-.27l-.45-.75v0c2.86.23,5.6.69,6.88,4.09.23-2.53.77-4.69,0-7-.68-2.14-1.16-5,.89-6.41a3.89,3.89,0,0,0,1.72-3.27,29,29,0,0,0,.09-5.51c-.12-1.79.23-2.76,2.34-2.7a10.29,10.29,0,0,0,4.37-.76c.73-.33,1-1.78,2.26-1.28s1.38,1.59,1.44,2.74c.19,3.8.48,7.6.6,11.4.16,5.13.88,10.29-.68,15.35-1.56,3.71-1.29,4.21,2.22,4.11.71,0,1.43.06,2.14.09-.37.32-.77.94-1.11.91-5.53-.51-4.81,3.34-4.69,6.7.09,2.57.5,5.13.44,7.69,0,2.29,1.31,1.86,2.64,1.76,2.06-.15,1.51-1.41,1.14-2.63a8.57,8.57,0,0,1-.41-2.11,1.28,1.28,0,0,1,1.31-1.45c1,0,1.19.72,1.17,1.51a8,8,0,0,1-.19,1.45c-.82,4.15-.16,4.67,4.39,3.39l2.46-.6c6.94,1.7,13.91,2.5,20.95.65,1.18-.31,2.13-.68,3.21.68.81,1,2.83,2.26,2.92-.87,0-1.12.24-2,1.62-1.87,1,.08,2,.25,2,1.62,0,.85-.08,1.69,1.25,1.78,6.55.44,13.09,1.36,19.64.1a10.36,10.36,0,0,1,5.41.73c4.42,1.49,6.3.13,6.29-4.42,0-1.6,0-3.2,0-4.81,0-3.3.41-6.88-4.73-6.4a4.6,4.6,0,0,1-.27-.9c1.48-.62,4.5,2.39,4.43-1.9,0-2.17-1.23-1.53-2.39-1.08a16.59,16.59,0,0,0-6.91,0,13.29,13.29,0,0,1-7.89-.63,73.65,73.65,0,0,0-17.24-.27c-2.54.65-5,0-7.52-.27-6.53-.77-13.13-.92-19.71-1.33a2.4,2.4,0,0,0-2.37,1.38l-1.2.48c-.28-1.43-.94-2.22-2.51-1.48-1.57-.49-4.22,1.49-4.5-2,.93-1.07,2.25-2.16,3.49-1.58,3.46,1.62,6.95.61,10.44.7,17.59.43,35.19,1,52.79,1.43,4.67.13,5-.23,4.54-4.87-.07-.71-.5-1.39-.6-2.1-.26-1.95-1-4.86.23-5.67,3.47-2.31,2.57-5.49,2.53-8.44,0-2.44.42-3.53,3.12-3.6,1.49,0,3.42.79,4.66-1.54.6-1.14,2.15,0,2.6,1.37.67,2.05-.9,4.83,1.29,6.18s4-1.47,6.27-1.14a8.68,8.68,0,0,0,1.81-.13c-1.37-6-.94-6.34,4.75-7.24a55.37,55.37,0,0,1,8.33-.19c1.42,0,1.94-1.65,3.17-1.26,3.46,1.12,6.81,1.64,9.94-.87.53-.42,1-.17,1.6.21,4.64,2.92,7.18,1.71,7.69-3.62.08-.85,0-1.72.16-2.57.26-1.75-.19-2.73-2.18-3-2.76-.38-4.88-1.34-2.15-4.51.16-.2-.25-.89-.39-1.35,1.81.94.18,5.29,3.68,4.18,2.87-.91.5-3.48.86-5.24a7.78,7.78,0,0,0,.23-3.21c0-3.3,0-6.61.16-9.92,0-1.52-.1-2.62-2.08-2.59-1.74,0-3,.28-2.75,2.56.59-1.41-1.53-3.46-.2-3.68,3.85-.65,4.13-3.39,4.36-6.38,1.74,1,.66,2.16.73,3.15-.67,4.46,3.24,2.1,4.81,3.23a6,6,0,0,0-2.49,5.36c.08,3.8.13,7.61.1,11.41,0,2.82,0,5.55,4.7,5.87-2.42.69-4.82.39-4.28,2.69.48,2-1.24,4,1.41,6.35,1.61,1.43,8.08,3.82,10,2.26,2.2-1.82-.19-5.34,1.42-7.38,1.19-1.51,3.58-1.18,5.31-1.2,2.1,0,2.95-.61,2.74-2.69a1.36,1.36,0,0,1,1.49-1.64c.91,0,2.09,0,1.92,1.12-.85,5.52,4.22,4.07,6.08,4.12,3,.08,3.62,1,3.88,3.48.42,3.91,1,7.8,1.5,11.69.22,1.57.6,4.45,1,4.47,4,.15,5.19,3,7.24,5.65,1,1.32,4.22,2.17,6.58,2,2-.46-1.95-4.32,2.22-3.43l0,1.56c-.73,2,0,3.2,2,3.81,3.26,1,6.54,1.93,9.73,3.12,2.22.83,3.15.46,2.9-2-.14-1.32,0-2.66-.06-4,0-.39,0-.79,0-1.19l1.66-.39.8,0c1.89,0,5.42-1.8,2.89,2.93-.82,1.54.44,3.45,1.81,4.59.83.68,1.1,1.18.65,2.09-2.84.13-2.35,2.39-2.19,3.95.26,2.42,2.3,1.41,3.74,1.43-.09.46-.19.93-.29,1.4Zm-111.92,5c1.38-3.28.37-6.72.62-10.08.22-3.05,0-6.12,0-9.19,0-4.61,0-4.67-4.82-4-6.39-1-6.5-1-6.13,5a31.69,31.69,0,0,1-1.22,10.93c-1.57,3.59-1.51,3.65,3.4,3.56a.93.93,0,0,1-.7,1.37c-1.49.45-4.15-.89-3.82,2.36s-2.36,7.35,2.73,9.74c1.83.85,3,1.82,5.16,1.07,1.42-.51,2.32.41,2.2,2l-1.39.11,1.36-.07c.08-2.07-.23-4,2.08-5.59,2.5-1.73-.77-3.9-.5-6,.72-.11.92-.63,1-1.24Zm81.77-14.87c-.73.06-1.46.2-2.19.19-1,0-1.69.05-1.71,1.3,0,1.07,0,2.05,1.38,2.12,1.89.11,3.45,1.09,5.15,1.64,3.24,1,3.27-1.63,3.39-3.83l.09-1.32c-1-2.31-6.65-4.84-8.68-3.86-.78.37-1.53.73-1.42,1.85s1,1.19,1.85,1.25,1.47.14,2.2.21A.33.33,0,0,0,1489.4,377.26Zm-253.61,22c6.24,1.65,12.63,1.6,18.92.93,2.1-.23,3.87-2.33,5.59.68.28.48,1.88.37,1.91-1.22,0-.86-.26-2.13,1.31-2.16s2.28.57,2.16,2.2c-.07,1,.68,1.11,1.51,1.07,4.25-.18,8.46,1.54,12.74.23a3.81,3.81,0,0,1,1.11.05c6.61.27,6.6.27,6.48-6.65,0-2.22,0-4.43,0-6.64-.17-5.27-1.13-6.52-6.44-6.53-6.74,0-13.47-.35-20.23-.15-4.52.13-9.34-.67-14-1.12s-4.82-.44-4.92,4.46c-.07,4,0,8.07-.34,12.1-1-4.37-.45-8.79-.52-13.18,0-2,.45-3.94-2.75-3.9-3,0-3.13,1.64-2.9,3.83a7.35,7.35,0,0,1-.12,1.47l-.78,1.6c0-1,0-2,0-2.94,0-1.74.13-3.7-2.36-3.81-2-.09-4.63-1.15-5.06,2.35-.24,2-1.87,1.31-2.9,1.25-2.24-.12-3.07.7-3,3,.14,3.56.18,7.13,0,10.68-.15,2.74,1.48,2.63,3.29,2.53,2.2-.12,1.79-1.47,1.34-2.86a3.43,3.43,0,0,1-.25-1.43c.11-.85-.43-2.32,1.14-2.17,1.32.12,1.12,1.46,1,2.38-.2,1.51-1.68,3.67-.05,4.32,2.06.8,4.73,1.61,6.93-.33Zm-47.15-21.6c-2.6.71-5.82-1.67-8.92-1.08-1.26.25-3.49-1.39-3.66,1.41s2.17,1,3.23,1.6c.39.22,1,.1,1.1.73-.08.19-.16.56-.23.55-4.52-.11-5.18,2.45-5,6.34.26,5.93,1.56,7.76,7.17,10,7.49,3.07,16.9,2.44,24.75,1.56,5.71-.63,4.82-4.88,4.66-9.76-.09-2.91-.18-5.52-4-5.8-.51,0-1.42,0-1-.94.13-.32.83-.4,1.27-.59,1,.13,2.55.6,2.83-.52a4,4,0,0,0-1.72-4.55C1202.3,377,1195.49,375.82,1188.64,377.67ZM1296.49,385c.9-.41,2.57.62,2.59-1.46,0-2.41-1.68-1.88-3.09-1.91-7.72-.18-7.71-.18-7.68,7.45,0,3.33.09,6.66,0,10-.08,2,.56,2.91,2.67,2.84,2.41-.09,4.84,0,7.25.1,1.57,0,1.44-1.07,1.45-2,0-3.82-.11-7.63-.05-11.44.05-3.41-3.09-1.47-4.7-3.1A13.88,13.88,0,0,0,1296.49,385Zm202-8.22c-.47-.17-1.08-.38-1.3.13a2,2,0,0,0,0,1.7c.75.85,1.72,2.1,2.63,2.12,2.52.07,3.78,1.63,4.73,3.44.62,1.19,1.44,1.1,2.38,1.15,1.86.09.44-1.13.61-1.7s.71-1.48,1.06-1c1.55,2.12,2.58-.82,4-.83Zm10.88,68.89c-.39-.85.31-2.58-1.36-2.46a2.85,2.85,0,0,0-2.6,2.62c-.13,1.69,1.5,1.05,2.19,1.39C1508.71,447,1510.17,447.33,1509.41,445.71ZM1482.35,373c.21.87-.23,2.32,1.43,1.71a1.53,1.53,0,0,0,.52-2.49c-1-1.16-1.6-1.9.15-2.87a1,1,0,0,0-.25-1.54,3.92,3.92,0,0,0-2.12-.12c-1,.23-.63,1.11-.53,2C1481.4,370.79,1482.07,371.87,1482.35,373Zm-256.51,7.59a3,3,0,0,0-2.82-2.39c-1.36-.21-1.46.66-1.6,1.75-.27,2,1,1.79,2.24,1.83C1224.62,381.81,1226,381.78,1225.84,380.62Z"/><path class="cls-65" d="M1542.35,453.51c-5-1.94-10,1.11-15.59-.92,1.16,2.35,2.5,1.81,3.39,1.69,4.08-.6,8.15,1.65,12.2,0Z"/><path class="cls-65" d="M1227.19,454.51c-11.38-1.67-22.73-2.33-34.12-.82A235.7,235.7,0,0,0,1227.19,454.51Z"/><path class="cls-65" d="M1154,454.56c-12.13-.22-24.25-2.29-36.41.08C1129.72,454.05,1141.84,456.75,1154,454.56Z"/><path class="cls-65" d="M1365,454.26c-9.72-2-19.17-1-28.58-1.22,0,.4,0,.81,0,1.22Z"/><path class="cls-65" d="M1387.76,453.23c8.35,2.44,16.77.2,25.24,2-.44-1.95-1.47-1.41-2.22-1.59-5.75-1.37-11.8,0-17.55-2.05C1391.67,451.08,1390.63,455.25,1387.76,453.23Z"/><path class="cls-65" d="M1309.91,454.85c5.39-.68,10.82.94,16.2-.94H1310Z"/><path class="cls-65" d="M1239.36,450c2.21-.46,2.44-2.42,3-3.85a1.55,1.55,0,0,0-1.58-2c-2.34.36-3.49,2.56-4,4.36C1236.19,450.61,1238.57,449,1239.36,450Z"/><path class="cls-65" d="M1453.72,454.18h14.18c-5.2-2.2-9.75-.17-14.23-.93C1453.69,453.56,1453.7,453.87,1453.72,454.18Z"/><path class="cls-65" d="M1111,453.6l-7.55,1C1106,455,1108.8,456.75,1111,453.6Z"/><path class="cls-65" d="M1477.23,453.39a10.33,10.33,0,0,0,7.49.53C1482.56,450.63,1480.25,453,1477.23,453.39Z"/><path class="cls-65" d="M1524.37,453.9c-2.12-.87-4.17-2.19-6.49-1.07-.18.09-.27.89-.22.91C1519.86,454.64,1522.11,454.31,1524.37,453.9Z"/><path class="cls-65" d="M1425.23,453.86c3,.26,6,1.35,9.37,0C1431.28,453.21,1428.23,453.59,1425.23,453.86Z"/><path class="cls-65" d="M1251.77,395.78c.13-1.42.31-2.83.38-4.25,0-.69.08-1.57-1-1.58-1.22,0-1.41.88-1.24,1.76.27,1.41.72,2.79,1.09,4.19Z"/><path class="cls-65" d="M1295.41,397c.9-1.85,1.71-3.42.34-5a.77.77,0,0,0-1.26.14C1293.4,393.77,1294,395.27,1295.41,397Z"/><path class="cls-65" d="M1228,437.64l.12,1,.68-.25Z"/><g class="cls-66"><path class="cls-67" d="M1519.55,387.16c-1.12-.14-2.47-.35-2.6,1.18s-1,3.38,1.16,4.31l.42,1c.1.58.24,1.1,1,.76l.24.08.24-.09.06.12c-.16.95.55,1.48,1.05,2.11,0,.72-.08,1.43-.11,2.15-.1.46,0,.74.55.77l.7.24.77.26c.63.35,1.48,1.16,1.86,1,3.63-1.72,7.23,0,10.82,0,5.1.08,5.64,1,3.87,6-4.3,12.16-10.17,23.3-21.17,30.9a5.36,5.36,0,0,0-4.83,3.32c-.94,2,.38,2,1.76,1.76.24.3.47.6.72.9,1.94-.43,2.56,2.83,4.75,1.71l3.15-.34.23.15.24-.14,1.79-.25c5.35,1.09,10.74.51,16.11.31v2.95c-6.68,1.89-13.45.31-20.15.65s-13.37,0-20.06.12c-8.93.13-17.86.18-26.8.25-5.11,0-10.2-.55-15.3-.75-4.6-.18-8.87.64-13.39.7-10.74.13-21.47.15-32.21.13-31.46,0-62.85-.12-94.25-.08-16,0-32-.08-47.94,0-50.33.32-100.77.06-151,.62-13.86.15-27.73.34-41.57-.63-2.94-.21-5.9-.09-8.85-.18-.66,0-1.76.23-1.69-.83.1-1.71,1.14-.4,1.8-.43,2.18-.13,4.54.07,6.5-.69,2.34-.9,1.81-3.71,2.45-5.73,3.43-6.24,8.17-11.53,12.46-17.14,4.89-6.41,4.72-13.18,1.5-20.18-1-2.16-2.06-3.63-4.07-.83-.41.56-1,1.39-1.77.81a20,20,0,0,1-5.08-5c-1.05-1.64.71-2.46,1.26-3.51,1.37-2.6-.14-3.94-1.7-5.57-2.26-2.35-4.69-4.55-6-7.7-.79-1.88-.38-2.32,1.46-2.54,3.8-.45,7.54.1,11.31.34,7.25.45,14.54.6,21.77,1.11,3.83.27,4-.79,3.77-3.62-.06-.61,0-1.24-.06-1.85-.06-4.43-.54-8.91-.07-13.29.44-4.09-1.11-7.86-.76-12,.38-4.35,1.92-8.69,1.14-13.15-.38-2.17-.64-4.35.72-6.61.33,2.58,1.12,5,.85,7.31-.68,5.79,2,11.11,1.16,17.16-1.14,8.15.11,16.62.18,25,0,1.67.67,2.37,2.07,2.32,7.48-.24,14.81,1.44,22.29,1.42a184.35,184.35,0,0,1,23.29,1.86c1.68-4.72-2.23-4.61-5.33-5.21,1.68-1.73,5.82.21,4.42-4.07-3.08-9.42-.54-19-.94-28.58a2.33,2.33,0,0,1,1.55-2.31c1.14-.39,1.88.25,2.16,1.38.23.91.72.89,1.6.86,5.53-.15,5.55-.1,6.07,4.95.06.57-.53,1.36-.31,1.73.9,1.46-.79,3.78,1.18,4.58,2.45,1,2,2.53,1.56,4.39a33.26,33.26,0,0,0-.76,5.45c-.21,3.91,1.79,6,5.61,5.13,4.78-1.06,9.54-.22,14.28-.66,4-.36,9.45,2,11.46-.95s.59-8.07.68-12.24a.49.49,0,0,0,.09-.56c.11-2.92.25-5.85.31-8.78,0-1.33.38-2.51,1.7-2.94s1.74.58,2,1.58,1,.63,1.71.59c5.06-.27,5.06-.24,5.21,4.77.07,2.17-.44,5.06,1.38,6.1s1.9,2.51,2.63,3.87l-.39,1c0,.88,0,1.77,0,2.66l-.68.41c-1,3.52.21,4.9,3.93,4.65,5.36-.36,10.73-.39,16.1-.56,1.11,1.82,2.25,1.76,3.4.05a10.81,10.81,0,0,1,4.6-.08l0,0c1.25,2.1,3,2.67,5.51,2.63,7.37-.14,14.74.08,22.1.1,1.16,0,2.47.56,3.44-.61v.06c3,.55,6,1.22,9,.63a4.78,4.78,0,0,0,.5-.39s-.1-.18-.16-.27l-.45-.75v0c2.86.23,5.6.69,6.88,4.09.23-2.53.77-4.69,0-7-.68-2.14-1.16-5,.89-6.41a3.89,3.89,0,0,0,1.72-3.27,29,29,0,0,0,.09-5.51c-.12-1.79.23-2.76,2.34-2.7a10.29,10.29,0,0,0,4.37-.76c.73-.33,1-1.78,2.26-1.28s1.38,1.59,1.44,2.74c.19,3.8.48,7.6.6,11.4.16,5.13.88,10.29-.68,15.35-1.56,3.71-1.29,4.21,2.22,4.11.71,0,1.43.06,2.14.09-.37.32-.77.94-1.11.91-5.53-.51-4.81,3.34-4.69,6.7.09,2.57.5,5.13.44,7.69,0,2.29,1.31,1.86,2.64,1.76,2.06-.15,1.51-1.41,1.14-2.63a8.57,8.57,0,0,1-.41-2.11,1.28,1.28,0,0,1,1.31-1.45c1,0,1.19.72,1.17,1.51a8,8,0,0,1-.19,1.45c-.82,4.15-.16,4.67,4.39,3.39l2.46-.6c6.94,1.7,13.91,2.5,20.95.65,1.18-.31,2.13-.68,3.21.68.81,1,2.83,2.26,2.92-.87,0-1.12.24-2,1.62-1.87,1,.08,2,.25,2,1.62,0,.85-.08,1.69,1.25,1.78,6.55.44,13.09,1.36,19.64.1a10.36,10.36,0,0,1,5.41.73c4.42,1.49,6.3.13,6.29-4.42,0-1.6,0-3.2,0-4.81,0-3.3.41-6.88-4.73-6.4a4.6,4.6,0,0,1-.27-.9c1.48-.62,4.5,2.39,4.43-1.9,0-2.17-1.23-1.53-2.39-1.08a16.59,16.59,0,0,0-6.91,0,13.29,13.29,0,0,1-7.89-.63,73.65,73.65,0,0,0-17.24-.27c-2.54.65-5,0-7.52-.27-6.53-.77-13.13-.92-19.71-1.33a2.4,2.4,0,0,0-2.37,1.38l-1.2.48c-.28-1.43-.94-2.22-2.51-1.48-1.57-.49-4.22,1.49-4.5-2,.93-1.07,2.25-2.16,3.49-1.58,3.46,1.62,6.95.61,10.44.7,17.59.43,35.19,1,52.79,1.43,4.67.13,5-.23,4.54-4.87-.07-.71-.5-1.39-.6-2.1-.26-1.95-1-4.86.23-5.67,3.47-2.31,2.57-5.49,2.53-8.44,0-2.44.42-3.53,3.12-3.6,1.49,0,3.42.79,4.66-1.54.6-1.14,2.15,0,2.6,1.37.67,2.05-.9,4.83,1.29,6.18s4-1.47,6.27-1.14a8.68,8.68,0,0,0,1.81-.13c-1.37-6-.94-6.34,4.75-7.24a55.37,55.37,0,0,1,8.33-.19c1.42,0,1.94-1.65,3.17-1.26,3.46,1.12,6.81,1.64,9.94-.87.53-.42,1-.17,1.6.21,4.64,2.92,7.18,1.71,7.69-3.62.08-.85,0-1.72.16-2.57.26-1.75-.19-2.73-2.18-3-2.76-.38-4.88-1.34-2.15-4.51.16-.2-.25-.89-.39-1.35,1.81.94.18,5.29,3.68,4.18,2.87-.91.5-3.48.86-5.24a7.78,7.78,0,0,0,.23-3.21c0-3.3,0-6.61.16-9.92,0-1.52-.1-2.62-2.08-2.59-1.74,0-3,.28-2.75,2.56.59-1.41-1.53-3.46-.2-3.68,3.85-.65,4.13-3.39,4.36-6.38,1.74,1,.66,2.16.73,3.15-.67,4.46,3.24,2.1,4.81,3.23a6,6,0,0,0-2.49,5.36c.08,3.8.13,7.61.1,11.41,0,2.82,0,5.55,4.7,5.87-2.42.69-4.82.39-4.28,2.69.48,2-1.24,4,1.41,6.35,1.61,1.43,8.08,3.82,10,2.26,2.2-1.82-.19-5.34,1.42-7.38,1.19-1.51,3.58-1.18,5.31-1.2,2.1,0,2.95-.61,2.74-2.69a1.36,1.36,0,0,1,1.49-1.64c.91,0,2.09,0,1.92,1.12-.85,5.52,4.22,4.07,6.08,4.12,3,.08,3.62,1,3.88,3.48.42,3.91,1,7.8,1.5,11.69.22,1.57.6,4.45,1,4.47,4,.15,5.19,3,7.24,5.65,1,1.32,4.22,2.17,6.58,2,2-.46-1.95-4.32,2.22-3.43l0,1.56c-.73,2,0,3.2,2,3.81,3.26,1,6.54,1.93,9.73,3.12,2.22.83,3.15.46,2.9-2-.14-1.32,0-2.66-.06-4,0-.39,0-.79,0-1.19l1.66-.39.8,0c1.89,0,5.42-1.8,2.89,2.93-.82,1.54.44,3.45,1.81,4.59.83.68,1.1,1.18.65,2.09-2.84.13-2.35,2.39-2.19,3.95.26,2.42,2.3,1.41,3.74,1.43-.09.46-.19.93-.29,1.4Zm-111.92,5c1.38-3.28.37-6.72.62-10.08.22-3.05,0-6.12,0-9.19,0-4.61,0-4.67-4.82-4-6.39-1-6.5-1-6.13,5a31.69,31.69,0,0,1-1.22,10.93c-1.57,3.59-1.51,3.65,3.4,3.56a.93.93,0,0,1-.7,1.37c-1.49.45-4.15-.89-3.82,2.36s-2.36,7.35,2.73,9.74c1.83.85,3,1.82,5.16,1.07,1.42-.51,2.32.41,2.2,2l-1.39.11,1.36-.07c.08-2.07-.23-4,2.08-5.59,2.5-1.73-.77-3.9-.5-6,.72-.11.92-.63,1-1.24Zm81.77-14.87c-.73.06-1.46.2-2.19.19-1,0-1.69.05-1.71,1.3,0,1.07,0,2.05,1.38,2.12,1.89.11,3.45,1.09,5.15,1.64,3.24,1,3.27-1.63,3.39-3.83l.09-1.32c-1-2.31-6.65-4.84-8.68-3.86-.78.37-1.53.73-1.42,1.85s1,1.19,1.85,1.25,1.47.14,2.2.21A.33.33,0,0,0,1489.4,377.26Zm-253.61,22c6.24,1.65,12.63,1.6,18.92.93,2.1-.23,3.87-2.33,5.59.68.28.48,1.88.37,1.91-1.22,0-.86-.26-2.13,1.31-2.16s2.28.57,2.16,2.2c-.07,1,.68,1.11,1.51,1.07,4.25-.18,8.46,1.54,12.74.23a3.81,3.81,0,0,1,1.11.05c6.61.27,6.6.27,6.48-6.65,0-2.22,0-4.43,0-6.64-.17-5.27-1.13-6.52-6.44-6.53-6.74,0-13.47-.35-20.23-.15-4.52.13-9.34-.67-14-1.12s-4.82-.44-4.92,4.46c-.07,4,0,8.07-.34,12.1-1-4.37-.45-8.79-.52-13.18,0-2,.45-3.94-2.75-3.9-3,0-3.13,1.64-2.9,3.83a7.35,7.35,0,0,1-.12,1.47l-.78,1.6c0-1,0-2,0-2.94,0-1.74.13-3.7-2.36-3.81-2-.09-4.63-1.15-5.06,2.35-.24,2-1.87,1.31-2.9,1.25-2.24-.12-3.07.7-3,3,.14,3.56.18,7.13,0,10.68-.15,2.74,1.48,2.63,3.29,2.53,2.2-.12,1.79-1.47,1.34-2.86a3.43,3.43,0,0,1-.25-1.43c.11-.85-.43-2.32,1.14-2.17,1.32.12,1.12,1.46,1,2.38-.2,1.51-1.68,3.67-.05,4.32,2.06.8,4.73,1.61,6.93-.33Zm-47.15-21.6c-2.6.71-5.82-1.67-8.92-1.08-1.26.25-3.49-1.39-3.66,1.41s2.17,1,3.23,1.6c.39.22,1,.1,1.1.73-.08.19-.16.56-.23.55-4.52-.11-5.18,2.45-5,6.34.26,5.93,1.56,7.76,7.17,10,7.49,3.07,16.9,2.44,24.75,1.56,5.71-.63,4.82-4.88,4.66-9.76-.09-2.91-.18-5.52-4-5.8-.51,0-1.42,0-1-.94.13-.32.83-.4,1.27-.59,1,.13,2.55.6,2.83-.52a4,4,0,0,0-1.72-4.55C1202.3,377,1195.49,375.82,1188.64,377.67ZM1296.49,385c.9-.41,2.57.62,2.59-1.46,0-2.41-1.68-1.88-3.09-1.91-7.72-.18-7.71-.18-7.68,7.45,0,3.33.09,6.66,0,10-.08,2,.56,2.91,2.67,2.84,2.41-.09,4.84,0,7.25.1,1.57,0,1.44-1.07,1.45-2,0-3.82-.11-7.63-.05-11.44.05-3.41-3.09-1.47-4.7-3.1A13.88,13.88,0,0,0,1296.49,385Zm202-8.22c-.47-.17-1.08-.38-1.3.13a2,2,0,0,0,0,1.7c.75.85,1.72,2.1,2.63,2.12,2.52.07,3.78,1.63,4.73,3.44.62,1.19,1.44,1.1,2.38,1.15,1.86.09.44-1.13.61-1.7s.71-1.48,1.06-1c1.55,2.12,2.58-.82,4-.83Zm10.88,68.89c-.39-.85.31-2.58-1.36-2.46a2.85,2.85,0,0,0-2.6,2.62c-.13,1.69,1.5,1.05,2.19,1.39C1508.71,447,1510.17,447.33,1509.41,445.71ZM1482.35,373c.21.87-.23,2.32,1.43,1.71a1.53,1.53,0,0,0,.52-2.49c-1-1.16-1.6-1.9.15-2.87a1,1,0,0,0-.25-1.54,3.92,3.92,0,0,0-2.12-.12c-1,.23-.63,1.11-.53,2C1481.4,370.79,1482.07,371.87,1482.35,373Zm-256.51,7.59a3,3,0,0,0-2.82-2.39c-1.36-.21-1.46.66-1.6,1.75-.27,2,1,1.79,2.24,1.83C1224.62,381.81,1226,381.78,1225.84,380.62Z"/><path class="cls-67" d="M1542.35,453.51c-5-1.94-10,1.11-15.59-.92,1.16,2.35,2.5,1.81,3.39,1.69,4.08-.6,8.15,1.65,12.2,0Z"/><path class="cls-67" d="M1227.19,454.51c-11.38-1.67-22.73-2.33-34.12-.82A235.7,235.7,0,0,0,1227.19,454.51Z"/><path class="cls-67" d="M1154,454.56c-12.13-.22-24.25-2.29-36.41.08C1129.72,454.05,1141.84,456.75,1154,454.56Z"/><path class="cls-67" d="M1365,454.26c-9.72-2-19.17-1-28.58-1.22,0,.4,0,.81,0,1.22Z"/><path class="cls-67" d="M1387.76,453.23c8.35,2.44,16.77.2,25.24,2-.44-1.95-1.47-1.41-2.22-1.59-5.75-1.37-11.8,0-17.55-2.05C1391.67,451.08,1390.63,455.25,1387.76,453.23Z"/><path class="cls-67" d="M1309.91,454.85c5.39-.68,10.82.94,16.2-.94H1310Z"/><path class="cls-67" d="M1239.36,450c2.21-.46,2.44-2.42,3-3.85a1.55,1.55,0,0,0-1.58-2c-2.34.36-3.49,2.56-4,4.36C1236.19,450.61,1238.57,449,1239.36,450Z"/><path class="cls-67" d="M1453.72,454.18h14.18c-5.2-2.2-9.75-.17-14.23-.93C1453.69,453.56,1453.7,453.87,1453.72,454.18Z"/><path class="cls-67" d="M1111,453.6l-7.55,1C1106,455,1108.8,456.75,1111,453.6Z"/><path class="cls-67" d="M1477.23,453.39a10.33,10.33,0,0,0,7.49.53C1482.56,450.63,1480.25,453,1477.23,453.39Z"/><path class="cls-67" d="M1524.37,453.9c-2.12-.87-4.17-2.19-6.49-1.07-.18.09-.27.89-.22.91C1519.86,454.64,1522.11,454.31,1524.37,453.9Z"/><path class="cls-67" d="M1425.23,453.86c3,.26,6,1.35,9.37,0C1431.28,453.21,1428.23,453.59,1425.23,453.86Z"/><path class="cls-67" d="M1251.77,395.78c.13-1.42.31-2.83.38-4.25,0-.69.08-1.57-1-1.58-1.22,0-1.41.88-1.24,1.76.27,1.41.72,2.79,1.09,4.19Z"/><path class="cls-67" d="M1295.41,397c.9-1.85,1.71-3.42.34-5a.77.77,0,0,0-1.26.14C1293.4,393.77,1294,395.27,1295.41,397Z"/><path class="cls-67" d="M1228,437.64l.12,1,.68-.25Z"/></g><path class="cls-68" d="M516.94,299.14c6.22-.25,12.48-.51,18.57-1.85,6.92-1.53,13.51-4.43,20.51-5.5s14.94.07,19.66,5.35c12.26-12.48,34-14,47.92-3.43a62.33,62.33,0,0,1,56.46-18.11c16.49-21.93,52.66-25.11,72.72-6.39a39.56,39.56,0,0,1,35.36,2.36c16.48-10.92,41.75-4.62,51.17,12.76,9.65-.81,18.44,3.3,27.77,5.22,49,10.14,65.52,11.92,98.87,13l-124,4.26c-5.32.18-13.85,6.45-21.1,6.82a80.33,80.33,0,0,1-32.5-5c-9.88,5-21.79,2.82-32.42-.32a16.86,16.86,0,0,0-5-1,20.17,20.17,0,0,0-6.05,1.53c-22.16,7.56-53.58-.53-77.07.7-41.68,2.19-84.08-.18-125.83-.42C503,309,457.8,315,419.67,308c34.9-6.29,23.82-5.83,34.9-6.29Z"/><path class="cls-48" d="M856.86,270.46c-.41-.36-.81.17-1,.38-2,2.52-5.17,3.06-7.68,4.71a19.45,19.45,0,0,1-4.15,1.59c-1.29.49-2.31,1.59-3.6,2a6.2,6.2,0,0,1-1.49,0,14.14,14.14,0,0,0-1.9.64,4.71,4.71,0,0,1-1.79-.14,34.16,34.16,0,0,0-4.94-.49c-1.67,0-3.34,0-5,0-.85,0-1.7,0-2.56,0-.39,0-2.19.22-2.44-.05.38.4.43.5.5.53a1.71,1.71,0,0,0,.45.09,40.52,40.52,0,0,1,11.51,1.82c1.52.5,1.75.75.69,1.84-.7.72.12.91.25,1.34a.62.62,0,0,0,1.06.36c1.21-1.44,2.84-.94,4.34-1.08,1.33-.12,2.66-1.13,2.59-2.44-.13-2.42,1.6-3,3.25-3.64,2.44-.91,5-1.46,7.42-2.5,1.83-.79,3.91-1.56,4.52-3.89C857,271.23,857.18,270.75,856.86,270.46Z"/><path class="cls-69" d="M960,314.53c4.39-.57,8.88-1.15,13.2-.2,4-10.88,18.59-16.27,28.66-10.55,5.52-12.09,21.82-17.82,33.69-11.83a34.9,34.9,0,0,1,60.65,14.47c9.28-8.15,25.47-6.32,32.7,3.69,8.22-7.49,21.15-3,31.55.91a185.81,185.81,0,0,0,50.11,11.32l-50.43-2.84c-41.54-2.33-82.87,3.92-124.61,5q-32.89.82-65.79.1c-18.86-.41-44.65-6.67-62.88-2.78C924.91,317.94,942,316.91,960,314.53Z"/><path class="cls-70" d="M-1,543.94c0-262,430-474.42,960.48-474.42S1920,281.92,1920,543.94V0H0Z"/><g class="cls-71"><path class="cls-72" d="M-1,543.94c0-262,430-474.42,960.48-474.42S1920,281.92,1920,543.94V0H0Z"/></g><g class="cls-73"><g class="cls-74"><g class="cls-75"><image width="8" height="16" transform="translate(41 -14.59)" xlink:href="Artboard%20418.png"/></g><image width="173" height="102" transform="translate(41 -0.59)" xlink:href="Artboard%20419.png"/><g class="cls-76"><image width="16" height="8" transform="translate(212 27.41)" xlink:href="Artboard%20420.png"/></g><g class="cls-77"><image width="8" height="16" transform="translate(55 -14.59)" xlink:href="Artboard%20421.png"/></g><image width="1908" height="226" transform="translate(12 -0.59)" xlink:href="Artboard%20422.png"/><g class="cls-78"><image width="15" height="8" transform="translate(1919 79.41)" xlink:href="Artboard%20423.png"/></g><g class="cls-79"><image width="16" height="8" transform="translate(-15 259.41)" xlink:href="Artboard%20424.png"/></g><image width="1921" height="256" transform="translate(-1 11.41)" xlink:href="Artboard%20425.png"/><g class="cls-80"><image width="15" height="8" transform="translate(1919 173.41)" xlink:href="Artboard%20426.png"/></g><g class="cls-81"><image width="15" height="8" transform="translate(1919 247.41)" xlink:href="Artboard%20427.png"/></g><image width="170" height="186" transform="translate(1750 131.41)" xlink:href="Artboard%20428.png"/><g class="cls-82"><image width="16" height="8" transform="translate(1736 309.41)" xlink:href="Artboard%20429.png"/></g><g class="cls-83"><image width="16" height="8" transform="translate(1749 244.41)" xlink:href="Artboard%20430.png"/></g><image width="179" height="113" transform="translate(1572 139.41)" xlink:href="Artboard%20431.png"/><g class="cls-84"><image width="8" height="16" transform="translate(1572 167.41)" xlink:href="Artboard%20432.png"/></g><g class="cls-85"><image width="16" height="8" transform="translate(1919 24.41)" xlink:href="Artboard%20433.png"/></g><image width="637" height="81" transform="translate(1284 11.41)" xlink:href="Artboard%20434.png"/><g class="cls-86"><image width="8" height="16" transform="translate(1284 82.41)" xlink:href="Artboard%20435.png"/></g><g class="cls-87"><image width="8" height="16" transform="translate(1431 91.41)" xlink:href="Artboard%20436.png"/></g><image width="8" height="27" transform="translate(1431 105.41)" xlink:href="Artboard%20437.png"/><g class="cls-88"><image width="8" height="16" transform="translate(1431 130.41)" xlink:href="Artboard%20438.png"/></g><g class="cls-89"><image width="8" height="16" transform="translate(911 81.41)" xlink:href="Artboard%20439.png"/></g><image width="8" height="70" transform="translate(911 13.41)" xlink:href="Artboard%20440.png"/><g class="cls-90"><image width="8" height="16" transform="translate(911 -0.59)" xlink:href="Artboard%20441.png"/></g><g class="cls-91"><image width="8" height="16" transform="translate(393 14.41)" xlink:href="Artboard%20442.png"/></g><image width="8" height="129" transform="translate(393 28.41)" xlink:href="Artboard%20443.png"/><g class="cls-92"><image width="8" height="16" transform="translate(393 155.41)" xlink:href="Artboard%20444.png"/></g><g class="cls-93"><image width="8" height="16" transform="translate(351 43.41)" xlink:href="Artboard%20445.png"/></g><image width="8" height="91" transform="translate(351 57.41)" xlink:href="Artboard%20446.png"/><g class="cls-94"><image width="8" height="16" transform="translate(351 146.41)" xlink:href="Artboard%20447.png"/></g><g class="cls-95"><image width="16" height="8" transform="translate(-15 329.41)" xlink:href="Artboard%20448.png"/></g><image width="140" height="96" transform="translate(-1 241.41)" xlink:href="Artboard%20449.png"/><g class="cls-96"><image width="16" height="8" transform="translate(137 241.41)" xlink:href="Artboard%20450.png"/></g><g class="cls-97"><image width="8" height="16" transform="translate(98 -14.59)" xlink:href="Artboard%20451.png"/></g><image width="8" height="273" transform="translate(98 -0.59)" xlink:href="Artboard%20452.png"/><g class="cls-98"><image width="8" height="16" transform="translate(98 270.41)" xlink:href="Artboard%20453.png"/></g><g class="cls-99"><image width="24" height="12" transform="translate(277 100.41)" xlink:href="Artboard%20454.png"/></g><image width="160" height="12" transform="translate(299 100.41)" xlink:href="Artboard%20455.png"/><g class="cls-100"><image width="24" height="12" transform="translate(457 100.41)" xlink:href="Artboard%20456.png"/></g><g class="cls-101"><image width="12" height="24" transform="translate(65 -22.59)" xlink:href="Artboard%20457.png"/></g><image width="12" height="99" transform="translate(65 -0.59)" xlink:href="Artboard%20458.png"/><g class="cls-102"><image width="12" height="24" transform="translate(65 96.41)" xlink:href="Artboard%20459.png"/></g><g class="cls-103"><image width="12" height="24" transform="translate(521 -22.59)" xlink:href="Artboard%20460.png"/></g><image width="12" height="79" transform="translate(521 -0.59)" xlink:href="Artboard%20461.png"/><g class="cls-104"><image width="12" height="24" transform="translate(521 76.41)" xlink:href="Artboard%20462.png"/></g><g class="cls-105"><image width="24" height="12" transform="translate(1919 291.41)" xlink:href="Artboard%20463.png"/></g><image width="521" height="262" transform="translate(1400 41.41)" xlink:href="Artboard%20464.png"/><g class="cls-106"><image width="12" height="24" transform="translate(1400 133.41)" xlink:href="Artboard%20465.png"/></g></g><path class="cls-107" d="M1941.37,327.73h-44.24V270.07h44.24a10.5,10.5,0,0,0,0-21h-54.74a10.5,10.5,0,0,0-10.5,10.5v43.05h-31.22V213.25h96.46a5,5,0,0,0,0-10h-96.46v-108h20.19v73.19a8,8,0,0,0,8,8h69.21a8,8,0,0,0,0-16H1881.1V94.78h63a5,5,0,0,0,0-10H1880.7a8,8,0,0,0-2-3.21,8,8,0,0,0-5.65-2.34h-62V36.06h131.17a5,5,0,0,0,0-10H1811.14v-44a8,8,0,0,0-8-8,8,8,0,0,0-8,8v44h-35.91a5,5,0,0,0-5,5V51.54h-14.32a10.49,10.49,0,0,0-9.23-5.5h-57.24a10.52,10.52,0,0,0-9.24,5.5h-10.27V22.38a5,5,0,0,0-5-5h-34.32v-35.3a5,5,0,0,0-5-5,5,5,0,0,0-5,5v35.3h-34.32a5,5,0,0,0-5,5V93h-41.16V-17.92a9.5,9.5,0,0,0-9.5-9.5,9.5,9.5,0,0,0-9.5,9.5V110.92H1387.28v-8.37a9.49,9.49,0,0,0-9.5-9.5h-29.73V66.29a5,5,0,0,0-5-5h-52.19V17.58h165.05a9.51,9.51,0,0,0,9.5-9.5v-26a9.5,9.5,0,0,0-9.5-9.5,9.5,9.5,0,0,0-9.5,9.5v16.5H1173.52a9.49,9.49,0,0,0-9.5,9.5V29.5H1062.59V-17.92a6,6,0,0,0-6-6,6,6,0,0,0-6,6V29.5h-32V-17.92a9.5,9.5,0,0,0-9.5-9.5,9.5,9.5,0,0,0-9.5,9.5V39a9.51,9.51,0,0,0,9.5,9.5h41.49V63.87H905.82V39a6,6,0,0,0-6-6H856.29V-17.92a6,6,0,0,0-6-6,6,6,0,0,0-6,6V33H783.78V-17.92a6,6,0,0,0-6-6,6,6,0,0,0-6,6V33H744.66a9.48,9.48,0,0,0,1.77-5.52V-2.64a9.58,9.58,0,0,0-2.79-6.72,9.53,9.53,0,0,0-6.71-2.78H605.79v-5.78a9.8,9.8,0,0,0-9.8-9.8,9.8,9.8,0,0,0-9.8,9.8v104H489.88v-104a9.8,9.8,0,0,0-9.8-9.8,9.8,9.8,0,0,0-9.8,9.8V149.94H419.41V136.25a9.8,9.8,0,0,0-9.8-9.8H330.56V-17.92a9.8,9.8,0,0,0-9.8-9.8,9.8,9.8,0,0,0-9.8,9.8V46H210.37V-17.92a4,4,0,0,0-4-4,4,4,0,0,0-4,4V50a4,4,0,0,0,4,4H311V64.66H164a9.8,9.8,0,0,0-9.8,9.8v51.66H108.76V29.8a4,4,0,0,0-4-4H-12.8a4,4,0,0,0-4,4,4,4,0,0,0,4,4H100.76v96.32a4,4,0,0,0,4,4h49.43v28.59H-5a9.8,9.8,0,0,0-9.8,9.8,9.8,9.8,0,0,0,9.8,9.8H154.19v69.25H109.86a9.8,9.8,0,0,0-9.8,9.8v99H-7a9.8,9.8,0,0,0-9.8,9.8,9.8,9.8,0,0,0,9.8,9.8H109.86a9.8,9.8,0,0,0,9.8-9.8v-99h34.53v53.52a9.8,9.8,0,1,0,19.6,0V153.53h38.45a9.83,9.83,0,0,0,6,5.33v15.69a4,4,0,0,0,4,4H280v25.11a4,4,0,0,0,4,4h58.72a4,4,0,0,0,4-4V146.05h53.1v13.69a9.8,9.8,0,0,0,9.8,9.8h70.47a9.8,9.8,0,0,0,9.8-9.8v-54H596a9.8,9.8,0,0,0,9.8-9.8V83.53H722.63a6,6,0,0,0,6-6V45H893.82V69.87a6,6,0,0,0,6,6h156.77a6,6,0,0,0,6-6V48.5h110.93A9.51,9.51,0,0,0,1183,39V17.58h97.84V66.29a5,5,0,0,0,5,5h52.19V93.05h-80.47V61.7a9.5,9.5,0,0,0-19,0v40.85a9.49,9.49,0,0,0,9.5,9.5h120.2v8.37a9.49,9.49,0,0,0,9.5,9.5h136.85a9.49,9.49,0,0,0,9.5-9.5v-2.91h22V153.1a5,5,0,0,0,5,5h14.15v22.43a5,5,0,0,0,5,5h72.89c-.07.62-.14,1.27-.19,1.92-.12,1.32-.2,2.67-.2,4,0,.65,0,1.3.08,2a12.26,12.26,0,0,0,.21,1.5,9.1,9.1,0,0,0,.34,1.25,7.41,7.41,0,0,0,.5,1.11,6.16,6.16,0,0,0,1.72,1.94,5.79,5.79,0,0,0,1.53.78,5.63,5.63,0,0,0,1.76.28h49.27a5,5,0,0,0,5-5V160.6h37.13a7.51,7.51,0,0,0,7.5-7.5V133h16.41v70.22h-33.56a5,5,0,0,0-5,5v71a5,5,0,0,0,5,5h33.56v25.89a7.48,7.48,0,0,0,7.5,7.5h63.17v85.95a5,5,0,0,0,5,5h101.46a5,5,0,0,0,0-10h-96.46V317.62h31.22v20.61a10.48,10.48,0,0,0,10.5,10.5h54.74a10.5,10.5,0,0,0,0-21ZM173.79,84.26H280v25.33H221.18a9.8,9.8,0,0,0-9.8,9.8v26.14H173.79Zm52.41,86.29V157.93a9.78,9.78,0,0,0,4.78-8.4V129.19h49v41.36Zm112.51,29.11H288V128.33a9.79,9.79,0,0,0,0-17.88V84.26h23v52a9.8,9.8,0,0,0,9.8,9.8h17.95ZM722.63,33a6,6,0,0,0-6,6V71.53H605.79V6.86H727.43V27.48A9.48,9.48,0,0,0,729.2,33ZM1664.2,61.54a10.5,10.5,0,0,0,9.24,5.5h57.24a10.47,10.47,0,0,0,9.23-5.5h14.32V93h-8.32a7.48,7.48,0,0,0-11.16,0h-80.82V61.54Zm-88.91-34.16h68.64V93h-68.64ZM1554.67,109a5,5,0,0,0-3.53-1.46h-27V103H1693.2V145.6h-36.77V127.83a7.5,7.5,0,1,0-15,0V148.1h-68.51a4.93,4.93,0,0,0-5.26,0h-11.52V112.51A5,5,0,0,0,1554.67,109Zm138.53,81.26h-40.38c0-.6.07-1.25.13-1.92.15-1.69.38-3.45.57-4.77.09-.65.18-1.2.24-1.58,0-.19,0-.34.07-.44l0-.1v0a5,5,0,0,0-4.92-5.86h-73.64V158.1h68.06l.27.3a7.55,7.55,0,0,0,5.31,2.2h44.27Zm39.63-44.63H1703.2V103h29.63ZM1777,120.22a7.58,7.58,0,0,0-5.3-2.19h-23.91V103h11.4a5,5,0,0,0,5-5V36.06h30.91V87.23a8,8,0,0,0,8,8h31.77v108h-55.67V125.53A7.55,7.55,0,0,0,1777,120.22Zm-41.36,154v-61h28.56v61Zm43.56,28.39V213.25h55.67v89.37Z"/></g><g class="cls-108"><g class="cls-109"><image width="21" height="41" transform="translate(132 341.41)" xlink:href="Artboard%20466.png"/></g><image width="168" height="261" transform="translate(132 82.41)" xlink:href="Artboard%20467.png"/><g class="cls-110"><image width="41" height="20" transform="translate(298 82.41)" xlink:href="Artboard%20468.png"/></g><g class="cls-111"><image width="21" height="41" transform="translate(289 -39.59)" xlink:href="Artboard%20469.png"/></g><image width="180" height="189" transform="translate(289 -0.59)" xlink:href="Artboard%20470.png"/><g class="cls-112"><image width="21" height="41" transform="translate(448 -39.59)" xlink:href="Artboard%20471.png"/></g><g class="cls-113"><image width="41" height="21" transform="translate(419 103.41)" xlink:href="Artboard%20472.png"/></g><image width="127" height="125" transform="translate(458 -0.59)" xlink:href="Artboard%20473.png"/><g class="cls-114"><image width="21" height="41" transform="translate(564 -39.59)" xlink:href="Artboard%20474.png"/></g><g class="cls-115"><image width="26" height="13" transform="translate(550 89.41)" xlink:href="Artboard%20475.png"/></g><image width="468" height="103" transform="translate(574 -0.59)" xlink:href="Artboard%20476.png"/><g class="cls-116"><image width="13" height="26" transform="translate(1029 -24.59)" xlink:href="Artboard%20477.png"/></g><g class="cls-117"><image width="13" height="26" transform="translate(750 55.41)" xlink:href="Artboard%20478.png"/></g><image width="13" height="58" transform="translate(750 -0.59)" xlink:href="Artboard%20479.png"/><g class="cls-118"><image width="13" height="26" transform="translate(750 -24.59)" xlink:href="Artboard%20480.png"/></g><g class="cls-119"><image width="13" height="26" transform="translate(822 55.41)" xlink:href="Artboard%20481.png"/></g><image width="13" height="58" transform="translate(822 -0.59)" xlink:href="Artboard%20482.png"/><g class="cls-120"><image width="13" height="26" transform="translate(822 -24.59)" xlink:href="Artboard%20483.png"/></g><g class="cls-121"><image width="40" height="20" transform="translate(536 5.41)" xlink:href="Artboard%20484.png"/></g><image width="152" height="40" transform="translate(574 5.41)" xlink:href="Artboard%20485.png"/><g class="cls-122"><image width="20" height="39" transform="translate(706 44.41)" xlink:href="Artboard%20486.png"/></g><g class="cls-123"><image width="20" height="40" transform="translate(978 -38.59)" xlink:href="Artboard%20487.png"/></g><image width="467" height="68" transform="translate(978 -0.59)" xlink:href="Artboard%20488.png"/><g class="cls-124"><image width="20" height="40" transform="translate(1425 -38.59)" xlink:href="Artboard%20489.png"/></g><g class="cls-125"><image width="20" height="40" transform="translate(1217 41.41)" xlink:href="Artboard%20490.png"/></g><image width="286" height="149" transform="translate(1217 -0.59)" xlink:href="Artboard%20491.png"/><g class="cls-126"><image width="20" height="40" transform="translate(1483 -38.59)" xlink:href="Artboard%20492.png"/></g><g class="cls-127"><image width="11" height="22" transform="translate(1259 8.41)" xlink:href="Artboard%20493.png"/></g><image width="68" height="93" transform="translate(1259 28.41)" xlink:href="Artboard%20494.png"/><g class="cls-128"><image width="11" height="22" transform="translate(1316 119.41)" xlink:href="Artboard%20495.png"/></g><g class="cls-129"><image width="22" height="11" transform="translate(1478 110.41)" xlink:href="Artboard%20496.png"/></g><image width="423" height="78" transform="translate(1498 43.41)" xlink:href="Artboard%20497.png"/><g class="cls-130"><image width="22" height="11" transform="translate(1919 43.41)" xlink:href="Artboard%20498.png"/></g><g class="cls-131"><image width="11" height="22" transform="translate(1543 114.41)" xlink:href="Artboard%20499.png"/></g><image width="90" height="82" transform="translate(1543 34.41)" xlink:href="Artboard%204100.png"/><g class="cls-132"><image width="11" height="22" transform="translate(1622 114.41)" xlink:href="Artboard%204101.png"/></g><g class="cls-133"><image width="22" height="11" transform="translate(1607 69.41)" xlink:href="Artboard%204102.png"/></g><image width="111" height="11" transform="translate(1627 69.41)" xlink:href="Artboard%204103.png"/><g class="cls-134"><image width="22" height="11" transform="translate(1736 69.41)" xlink:href="Artboard%204104.png"/></g><g class="cls-135"><image width="11" height="22" transform="translate(1583 38.41)" xlink:href="Artboard%204105.png"/></g><image width="11" height="41" transform="translate(1583 -0.59)" xlink:href="Artboard%204106.png"/><g class="cls-136"><image width="11" height="22" transform="translate(1583 -20.59)" xlink:href="Artboard%204107.png"/></g><g class="cls-137"><image width="44" height="22" transform="translate(1610 63.41)" xlink:href="Artboard%204108.png"/></g><image width="58" height="22" transform="translate(1652 63.41)" xlink:href="Artboard%204109.png"/><g class="cls-138"><image width="44" height="22" transform="translate(1708 63.41)" xlink:href="Artboard%204110.png"/></g><g class="cls-139"><image width="22" height="11" transform="translate(1831 102.41)" xlink:href="Artboard%204111.png"/></g><image width="72" height="11" transform="translate(1851 102.41)" xlink:href="Artboard%204112.png"/><g class="cls-140"><image width="17" height="34" transform="translate(1773 -32.59)" xlink:href="Artboard%204113.png"/></g><image width="148" height="195" transform="translate(1773 -0.59)" xlink:href="Artboard%204114.png"/><g class="cls-141"><image width="34" height="17" transform="translate(1919 177.41)" xlink:href="Artboard%204115.png"/></g><g class="cls-142"><image width="11" height="22" transform="translate(1543 149.41)" xlink:href="Artboard%204116.png"/></g><image width="139" height="103" transform="translate(1543 115.41)" xlink:href="Artboard%204117.png"/><g class="cls-143"><image width="11" height="22" transform="translate(1671 95.41)" xlink:href="Artboard%204118.png"/></g><g class="cls-144"><image width="16" height="32" transform="translate(1711 85.41)" xlink:href="Artboard%204119.png"/></g><image width="107" height="64" transform="translate(1620 115.41)" xlink:href="Artboard%204120.png"/><g class="cls-145"><image width="16" height="32" transform="translate(1620 115.41)" xlink:href="Artboard%204121.png"/></g><line class="cls-146" y1="190.43" x2="142.62" y2="190.43"/><g class="cls-147"><image width="41" height="21" transform="translate(-40 377.41)" xlink:href="Artboard%204122.png"/></g><image width="143" height="129" transform="translate(0 269.41)" xlink:href="Artboard%204123.png"/><g class="cls-148"><image width="41" height="20" transform="translate(141 269.41)" xlink:href="Artboard%204124.png"/></g><g class="cls-149"><image width="18" height="9" transform="translate(-17 43.41)" xlink:href="Artboard%204125.png"/></g><image width="144" height="109" transform="translate(-1 43.41)" xlink:href="Artboard%204126.png"/><g class="cls-150"><image width="18" height="9" transform="translate(141 143.41)" xlink:href="Artboard%204127.png"/></g><g class="cls-151"><image width="8" height="18" transform="translate(181 -16.59)" xlink:href="Artboard%204128.png"/></g><image width="109" height="73" transform="translate(181 -0.59)" xlink:href="Artboard%204129.png"/><g class="cls-152"><image width="18" height="9" transform="translate(288 63.41)" xlink:href="Artboard%204130.png"/></g><g class="cls-153"><image width="9" height="18" transform="translate(258 75.41)" xlink:href="Artboard%204131.png"/></g><image width="68" height="135" transform="translate(258 91.41)" xlink:href="Artboard%204132.png"/><g class="cls-154"><image width="9" height="18" transform="translate(317 140.41)" xlink:href="Artboard%204133.png"/></g><g class="cls-155"><image width="18" height="9" transform="translate(130 163.41)" xlink:href="Artboard%204134.png"/></g><image width="117" height="34" transform="translate(146 163.41)" xlink:href="Artboard%204135.png"/><g class="cls-156"><image width="18" height="9" transform="translate(261 188.41)" xlink:href="Artboard%204136.png"/></g><g class="cls-157"><image width="41" height="20" transform="translate(261 127.41)" xlink:href="Artboard%204137.png"/></g><image width="73" height="41" transform="translate(190 127.41)" xlink:href="Artboard%204138.png"/><g class="cls-158"><image width="20" height="41" transform="translate(190 166.41)" xlink:href="Artboard%204139.png"/></g><g class="cls-159"><image width="11" height="22" transform="translate(1813 84.41)" xlink:href="Artboard%204140.png"/></g><image width="107" height="323" transform="translate(1813 104.41)" xlink:href="Artboard%204141.png"/><g class="cls-160"><image width="21" height="11" transform="translate(1919 416.41)" xlink:href="Artboard%204142.png"/></g><g class="cls-161"><image width="32" height="16" transform="translate(1688 135.41)" xlink:href="Artboard%204143.png"/></g><image width="148" height="201" transform="translate(1718 135.41)" xlink:href="Artboard%204144.png"/><g class="cls-162"><image width="32" height="16" transform="translate(1864 320.41)" xlink:href="Artboard%204145.png"/></g><g class="cls-163"><image width="43" height="22" transform="translate(1919 266.41)" xlink:href="Artboard%204146.png"/></g><image width="66" height="101" transform="translate(1854 266.41)" xlink:href="Artboard%204147.png"/><g class="cls-164"><image width="43" height="22" transform="translate(1919 345.41)" xlink:href="Artboard%204148.png"/></g><g class="cls-165"><image width="22" height="11" transform="translate(1473 125.41)" xlink:href="Artboard%204149.png"/></g><image width="135" height="51" transform="translate(1493 125.41)" xlink:href="Artboard%204150.png"/><g class="cls-166"><image width="22" height="11" transform="translate(1626 165.41)" xlink:href="Artboard%204151.png"/></g><g class="cls-167"><image width="21" height="11" transform="translate(1919 220.41)" xlink:href="Artboard%204152.png"/></g><image width="216" height="82" transform="translate(1704 220.41)" xlink:href="Artboard%204153.png"/><g class="cls-168"><image width="22" height="11" transform="translate(1749 291.41)" xlink:href="Artboard%204154.png"/></g></g></g></g></svg>