<svg>
<path xmlns="http://www.w3.org/2000/svg" class="cls-126" d="M777.88,897.73c-.16,1-1.93-.06-.94,2,7.53,1.39,15.9-3.06,22.41-4.76-1,.75-2.21,1.91-3,2.54,7.68,2.25,15.51-3.08,22.22-6.39-1.06,1.34-1.95,3.13-2.86,4.33,7-.37,13.9-4.44,20.5-7-2.45,1.35-4.66,4.49-6.42,5.93,8,1.61,17.7-3.52,24.38-7.53-8.57,6.32-26.23,20.8-37.26,19.4.69-1.82.35-2.37,1.61-4.23a94.3,94.3,0,0,1-25.32,7.5,3.26,3.26,0,0,1-.88-2.06c1-1.17,1.55-2.13,2.43-3.31-6.89,2.52-16.28,6-23.23,4.2.86-1,2-2.87,3-3.9-4.62,1.38-10,3.14-15,.66,1.9-11.41,21.34-10.73,29.91-13.94-3.43,2.36-7,4.37-10.14,6.92C780.94,899.81,780.42,897.64,777.88,897.73Z"/>
</svg>