<svg><rect width="2000" height="2000"/><path class="cls-48" d="M856.86,270.46c-.41-.36-.81.17-1,.38-2,2.52-5.17,3.06-7.68,4.71a19.45,19.45,0,0,1-4.15,1.59c-1.29.49-2.31,1.59-3.6,2a6.2,6.2,0,0,1-1.49,0,14.14,14.14,0,0,0-1.9.64,4.71,4.71,0,0,1-1.79-.14,34.16,34.16,0,0,0-4.94-.49c-1.67,0-3.34,0-5,0-.85,0-1.7,0-2.56,0-.39,0-2.19.22-2.44-.05.38.4.43.5.5.53a1.71,1.71,0,0,0,.45.09,40.52,40.52,0,0,1,11.51,1.82c1.52.5,1.75.75.69,1.84-.7.72.12.91.25,1.34a.62.62,0,0,0,1.06.36c1.21-1.44,2.84-.94,4.34-1.08,1.33-.12,2.66-1.13,2.59-2.44-.13-2.42,1.6-3,3.25-3.64,2.44-.91,5-1.46,7.42-2.5,1.83-.79,3.91-1.56,4.52-3.89C857,271.23,857.18,270.75,856.86,270.46Z"></path></svg>